<svg xmlns="http://www.w3.org/2000/svg" width="500" height="500" viewBox="0 0 375 375"><defs><path id="a" d="M187.791 308.284q-3.954.316-3.953-8.094-.001-2.78.484-6.344l1.016-6.828.688-5.422q.153-2.186-.469-2.297-.55-.105-2.312 1.969-1.752 2.08-3.984 6.344c-2.232 4.264-2.875 6.398-4.156 10.656q-.317 1.376-1.641 1.703-1.342.315-1.234-1.391l.438-4.094.531-3.672.734-4.703q.328-2.014 1.234-2.547c.906-.533 1.148-.332 1.641.063q.75.581.438 1.953l-.703 4.328-.266 1.484s-.148.625-.219 1.125q-.095.738-.625 3.188c.133-.781.594-2.094 1.375-3.937a78 78 0 0 1 2.766-5.797c1.07-2.031 2.191-3.773 3.359-5.234q1.763-2.185 3.047-1.969 1.921.112 2.453 2.188c.532 2.076.441 3.148.266 5.281-.18 2.125-.5 4.398-.969 6.813l-1.172 6.828q-.468 3.189-.375 5.375.106 2.173 1.391 2.391.855.111 2.391-1.641 1.545-1.764 3.406-4.687l3.734-6.453 3.359-6.828q.217-.42.484-.359.263.047.047.469a87 87 0 0 1-3.187 6.766l-3.625 6.453s-2.367 3.625-3.469 4.906q-1.643 1.91-2.922 2.016zm0 0"/><path id="b" d="m222.84 279.409-.594 6.609-.734 8.359-.906 8.688 5.156-3.781q2.935-2.186 5.859-5.062a32.3 32.3 0 0 0 5.063-6.391q.217-.435.422-.266.216.157.016.578a29.2 29.2 0 0 1-5.078 6.609q-3.032 2.987-6.125 5.219l-5.422 3.938a352 352 0 0 1-2.187 15.828q-1.33 8.249-3.25 16.234c-1.281 5.332-2.758 10.32-4.422 14.969q-2.5 6.983-5.594 12.156c-3.094 5.173-4.336 6.004-6.812 7.672-2.488 1.664-5.187 2.219-8.094 1.656q-2.562-.534-4.109-3.781c-1.547-3.247-1.613-5.012-1.75-8.531q-.218-5.269 1.375-11.937 1.594-6.657 5.438-13.953 3.832-7.3 10.219-14.641 6.404-7.36 15.891-14.062l2.125-21.953c-2.199 6.75-4.418 11.711-6.656 14.875q-3.364 4.734-6.562 4.734-2.987-.216-4.422-2.828c-1.435-2.612-1.504-3.766-1.641-6.078q-.217-3.469.422-6.234c.988-3.977 2.602-6.766 4.844-8.359q3.358-2.404 6.031-2.406 2.438.11 3.563 2.719c1.125 2.609.41 3.855-1.016 6.344a.68.68 0 0 1-.375.328c-.18.063-.266-.047-.266-.328q2.14-3.733 1.016-6.125c-1.124-2.392-1.797-2.359-3.141-2.297q-1.923.44-3.687 3-1.753 2.55-3.031 6.125-1.282 3.562-1.656 7.078-.361 3.516.438 5.859c.799 2.343 1.578 2.383 3.141 2.453q3.294.112 6.766-6.062 3.469-6.186 6.656-16.531.528-1.812 1.922-1.906 1.388-.107 1.172 1.484zm-32.078 92.375q4.799-.112 8.578-4.109 3.779-3.986 6.719-10.812 2.936-6.815 5.063-15.281c2.127-8.466 2.602-11.508 3.563-17.578s1.758-11.988 2.406-17.75q-9.908 7.47-16.312 15.188-6.389 7.718-9.953 15.125-3.576 7.406-4.797 13.844-1.218 6.451-.797 11.297.422 4.856 1.969 7.516 1.547 2.67 3.563 2.563zm0 0"/><path id="d" d="M173.091 218.099q2.28-.14 4.828-2.594c1.707-1.633 3.723-4.016 6.047-7.141q.141-.217.281-.141.154.065.016.281l-3.875 4.938q-1.956 2.314-3.812 3.703c-1.23.93-2.414 1.391-3.547 1.391q-2.642 0-3.531-1.594c-.586-1.07-.781-2.445-.594-4.125a25.6 25.6 0 0 1 1.141-5.156q1.278-3.56 3.328-5.656 2.062-2.092 4.125-1.453c.625.188.898.684.828 1.484s-.387 1.68-.937 2.625a7.5 7.5 0 0 1-2.094 2.359q-1.282.926-2.766.703-.86 2.485-1.281 4.906c-.421 2.421-.293 2.945-.031 3.984s.883 1.539 1.875 1.484zm4.266-17.203q-.985-.28-2.094 1.219-1.096 1.487-2.094 3.906a11 11 0 0 0-.5 1.422q1.28.281 2.453-.609c1.173-.89 1.43-1.328 1.953-2.203s.828-1.676.922-2.406q.14-1.106-.641-1.328zm0 0"/><path id="e" d="M186.249 219.318q1.905.205 5.25-2.672c3.345-2.877 4.672-4.676 7.328-8.281q.2-.28.375-.203c.125.043.117.156-.016.344a48 48 0 0 1-3 3.844 50 50 0 0 1-3.547 3.734q-1.845 1.736-3.516 2.734-1.676.984-2.953.844-2.063-.281-2.672-2.344-.597-2.061-.203-5.187c.394-3.126.734-4.27 1.422-6.562l2.234-6.516q3.058-7.889 6.469-14.359c3.411-6.47 4.555-8.004 6.859-11.078q3.452-4.623 6.5-6.891 3.06-2.28 5.328-1.719 1.922.423 1.781 2.875c-.141 2.452-.711 3.711-1.844 6.219s-2.633 5.273-4.484 8.281c-1.844 3.012-3.93 6.047-6.25 9.109a133 133 0 0 1-7.219 8.703q-3.72 4.126-7.281 7.109-1.782 6.035-1.719 8.953.078 2.909 1.156 3.063zm25.656-53.891q-1.642-.42-4.062 1.609-2.407 2.017-5.219 5.938-2.8 3.908-5.687 9.281-2.878 5.362-5.469 11.609a123 123 0 0 0-4.516 12.859q3.42-2.905 7-6.953a152 152 0 0 0 7-8.531q3.42-4.483 6.156-8.891c2.736-4.408 3.289-5.625 4.406-8.062q1.67-3.668 1.875-6.047.216-2.374-1.484-2.812m0 0"/><clipPath id="c"><path d="M19.133 320.223h123.75v33.75H19.133zm0 0"/></clipPath><clipPath id="f"><path d="M130.297 116.391H375v58.5H130.297zm0 0"/></clipPath></defs><g fill="gray"><path d="M169.886 230.175c2.344.781 3.867 2.648 4.578 5.594q1.077 4.422.109 10.984-.957 6.549-3.359 14.328-2.392 7.783-5.797 15.828a188 188 0 0 1-7.359 15.391q-3.939 7.346-7.766 13 1.17 8.426 3.031 15.234c1.861 6.808 2.691 8.234 4.359 11.078q2.514 4.265 5.391 5.219.528-1.378 1.016-1.016.48.375.375 1.172-.11.808-1.609.703-3.72-.97-6.656-4.859-2.924-3.878-5.062-9.906-2.126-6.012-3.625-13.359-5.954 8.94-10.859 14.422-4.91 5.497-8.906 8.422c-2.656 1.957-5.055 3.27-7.187 3.938q-3.187 1.014-5.859.922-5.003-.111-7.937-4.641-2.922-4.534-4-12.203-1.065-7.67-.484-17.469.594-9.797 2.609-20.672 2.029-10.873 5.281-21.687c3.252-10.814 4.672-14.008 7.516-20.406q-14.923-4.577-26.859-5.797-11.923-1.232-19.281 1.281-7.347 2.501-8.734 9.109c.07.211 0 .336-.219.375q-.317.047-.422-.375c-.062-.289.082-.969.438-2.031s1.113-2.25 2.281-3.562q1.763-1.968 5.438-3.625c3.675-1.657 5.727-1.812 9.844-2.125 4.125-.32 9.273-.039 15.453.844q9.28 1.332 22.281 5.375 2.653-5.529 5.266-8.187 2.606-2.67 4.844-3.359c1.5-.469 2.742-.523 3.734-.172q1.5.534 1.922 1.391.64 1.282.266 3.578-.375 2.284-1.875 4.469-1.488 2.19-4.359 3.313-2.878 1.113-7.344.141-5.549 15.034-8.906 28.984c-3.357 13.95-3.824 17.918-4.75 25.844q-1.377 11.876-.891 20.828c.486 8.952 1.207 10.691 2.656 14.172q2.187 5.216 6.031 5.75c1.063.145 2.586-.055 4.578-.594 1.988-.531 4.398-1.742 7.234-3.625q4.265-2.813 9.531-8.562 5.28-5.749 11.469-15.453c-.93-5.32-1.375-11.035-1.344-17.141q.06-9.169 1.344-18.391c1.284-9.222 2.023-11.93 3.516-17.359q2.231-8.154 5.266-14.281 3.047-6.122 6.563-9.109c3.516-2.987 4.754-2.562 7.234-1.719zm-.203.547c-1.711-.719-3.469-.133-5.281 1.75s-3.574 4.73-5.281 8.531q-2.55 5.689-4.625 13.313c-2.075 7.624-2.523 10.484-3.406 16.203a149 149 0 0 0-1.656 17.25q-.316 8.69.641 16.359 3.514-4.904 7.188-11.766 3.686-6.874 7.031-14.656a167 167 0 0 0 5.813-15.5q2.45-7.733 3.516-14.328 1.061-6.607.266-11.187-.798-4.593-4.203-5.969zm-49.125 9.578q4.266.86 7.031-.312 2.778-1.17 4.219-3.297 1.435-2.139 1.641-4.219.218-2.076-.531-2.828-.738-.844-2.766-.469c-2.028.375-2.887 1.211-4.594 2.875q-2.55 2.502-5 8.25m0 0"/><use href="#a"/><use href="#b"/><path d="M252.035 283.768q-1.61.222-3.578 2.734c-1.312 1.668-2.664 3.762-4.047 6.281l-3.937 7.891-3.25 7.609-.328 1.375c-.211.781-.613 1.355-1.219 1.719q-.902.533-1.641 0-.748-.544-.547-2.453c1.492-14.281 3.441-26.926 5.859-37.937s5.133-20.223 8.156-27.641q4.53-11.139 9.375-16.359c4.845-5.22 6.336-4.828 9.328-4.047q2.766.75 3.141 3.891c.375 3.141-.074 4.742-.969 7.938q-1.33 4.799-3.891 10.5a183 183 0 0 1-5.75 11.656 217 217 0 0 1-6.5 11.359q-3.3 5.378-6.172 9.578c-2.872 4.2-3.48 4.918-4.687 6.344l-2.031 11.078-1.172 6.5-.641 3.828q1.277-3.187 3.141-7.078a117 117 0 0 1 3.891-7.406q2.03-3.516 4.047-5.859 2.029-2.344 3.734-2.344c1.426-.07 2.441.516 3.047 1.766q.905 1.862 1 4.797c.07 1.949-.016 4.027-.266 6.234l-.687 6.281c-.211 1.98-.297 3.633-.266 4.953q.046 1.971.906 2.078.844.095 2.391-1.703 1.547-1.812 3.469-4.906c1.922-3.094 2.555-4.352 3.828-6.875a85 85 0 0 0 3.422-7.625q.2-.42.469-.25.262.158.063.469-3.956 9.704-7.734 15.781-3.784 6.063-6.437 5.734-1.922-.201-2.672-2.172-.736-1.967-.687-5a77 77 0 0 1 .359-6.297l.641-6.125q.328-2.872.109-4.625-.205-1.764-1.266-1.672zm13.953-60.078q-2.988-.545-5.859 2.438c-2.871 2.983-3.781 4.871-5.594 8.641-1.812 3.762-3.523 8.199-5.125 13.313q-2.392 7.674-4.422 16.578a281 281 0 0 0-3.5 18.266q3.403-4.266 7.188-10.125c3.785-5.859 5.004-8.039 7.453-12.406a207 207 0 0 0 6.656-12.844q2.982-6.28 4.641-11.5 1.654-5.233 1.438-8.578-.204-3.358-2.875-3.781zm0 0"/><path d="M271.84 307.315q-3.61-.092-4.453-5.266c-.57-3.445-.047-8.082 1.578-13.906q1.077-2.983 2.453-2.812 1.388.158.859 2.813l-1.5 6.297c-.492 2.125-.859 4.094-1.109 5.906s-.219 3.309.094 4.484q.481 1.753 2.188 1.859 1.499.096 3.203-1.812 1.7-1.92 3.406-4.906a95 95 0 0 0 3.25-6.234l2.719-5.812q.105-.2.375-.141.263.047.047.359-3.832 8.736-7.031 14.016-3.188 5.267-6.078 5.156zm0-29.937q.638-1.81 1.922-1.703c1.284.107 1.141.68.859 1.813-.219.93-.617 1.516-1.187 1.766q-.845.376-1.437-.156-.579-.545-.156-1.719zm0 0"/><path d="M291.979 302.534q3.311-.217 6.5-3.891 3.2-3.686 7.25-10.719.217-.31.422-.203.217.111 0 .422-2.126 3.938-4.469 7.406c-2.343 3.468-3.148 4.164-4.75 5.547q-2.392 2.08-4.953 2.078-3.938 0-5.703-2.391c-1.168-1.602-1.816-3.664-1.953-6.187a40.7 40.7 0 0 1 .313-7.734q.95-5.327 3.453-8.469c1.676-2.094 3.613-2.82 5.813-2.187q1.5.44 1.656 2.25.152 1.799-.703 3.938c-.562 1.418-1.398 2.59-2.5 3.516-1.094.918-2.43 1.273-4 1.063a44.4 44.4 0 0 0-.625 7.359q-.001 3.61 1 5.953 1.013 2.344 3.25 2.25zm1.813-25.797c-1.062-.281-2.008.328-2.828 1.828q-1.219 2.236-2.062 5.844l-.219 1.078-.219 1.063q2.03.422 3.578-.906c1.548-1.328 1.789-1.984 2.281-3.297.5-1.32.727-2.531.688-3.625-.031-1.102-.437-1.766-1.219-1.984zm0 0"/></g><path fill="none" stroke="#fdf6f8" stroke-width="3.996" d="M165.176 225.48q3.54 1.173 4.578 5.594 1.066 4.424.105 10.977-.936 6.533-3.355 14.309-2.397 7.776-5.801 15.844a187 187 0 0 1-7.363 15.398c-2.617 4.891-5.203 9.215-7.75 12.98q1.17 8.426 3.016 15.242 1.875 6.815 4.371 11.082 2.524 4.266 5.387 5.227.544-1.402 1.012-1.039.498.393.363 1.195c-.066.539-.598.766-1.586.68q-3.72-.937-6.66-4.84-2.936-3.877-5.07-9.91-2.107-6.012-3.617-13.371-5.954 8.947-10.871 14.437-4.892 5.49-8.898 8.402-3.98 2.937-7.18 3.953c-3.2 1.016-4.082.98-5.852.91q-5.02-.105-7.961-4.629-2.913-4.529-3.98-12.203c-1.067-7.674-.875-10.941-.492-17.48.398-6.535 1.273-13.422 2.625-20.652a212 212 0 0 1 5.258-21.695q3.251-10.822 7.516-20.395c-9.937-3.066-18.887-5.012-26.844-5.824s-14.395-.383-19.301 1.301q-7.337 2.497-8.715 9.102c.066.211-.008.332-.234.367q-.312.047-.418-.367-.105-.44.418-2.027.544-1.612 2.289-3.562 1.77-1.978 5.437-3.617 3.691-1.663 9.855-2.133 6.194-.492 15.453.832 9.287 1.327 22.266 5.383 2.682-5.537 5.281-8.191c1.754-1.785 3.375-2.906 4.867-3.355q2.234-.703 3.719-.156c.988.348 1.629.805 1.926 1.379q.621 1.272.258 3.562c-.363 2.29-.867 3.02-1.871 4.473q-1.482 2.186-4.371 3.305-2.86 1.118-7.336.156-5.543 15.035-8.895 29.004-3.356 13.944-4.762 25.832-1.378 11.86-.91 20.809.493 8.947 2.68 14.18c2.187 5.233 3.457 5.398 6.008 5.746q1.612.211 4.578-.598 2.993-.781 7.258-3.617c2.844-1.871 6.02-4.723 9.52-8.555 3.523-3.836 7.344-8.984 11.473-15.453q-1.376-7.987-1.328-17.141c.035-6.125.477-12.254 1.328-18.395s2.02-11.922 3.512-17.348q2.236-8.169 5.281-14.281c2.027-4.094 4.215-7.137 6.555-9.133s4.75-2.555 7.23-1.691zm-.207.523q-2.55-1.067-5.281 1.77c-1.805 1.871-3.562 4.707-5.281 8.504q-2.548 5.696-4.629 13.32-2.058 7.618-3.406 16.203a147 147 0 0 0-1.641 17.273q-.311 8.66.625 16.336c2.359-3.258 4.762-7.18 7.207-11.758 2.441-4.594 4.785-9.484 7.023-14.672s4.168-10.352 5.801-15.504q2.468-7.723 3.535-14.305 1.066-6.607.262-11.187c-.539-3.066-1.941-5.062-4.215-5.98zm-49.113 9.598q4.267.832 7.023-.34 2.784-1.167 4.215-3.277 1.43-2.132 1.641-4.211.233-2.086-.523-2.836c-.5-.574-1.43-.73-2.781-.469q-2.005.362-4.578 2.887-2.548 2.497-4.996 8.246zm67.227 67.973q-3.954.312-3.953-8.09 0-2.784.469-6.348l1.012-6.816q.551-3.252.703-5.437c.152-2.185-.051-2.219-.469-2.289-.363-.07-1.137.59-2.312 1.977-1.164 1.371-2.488 3.477-3.98 6.32s-2.879 6.402-4.164 10.668q-.311 1.379-1.637 1.715-1.33.315-1.223-1.402l.414-4.086a66 66 0 0 1 .547-3.691l.73-4.684q.336-2.028 1.223-2.551.908-.544 1.664.055.755.57.414 1.977l-.676 4.293q-.154 1.114-.285 1.508-.106.362-.207 1.117-.104.726-.625 3.199.207-1.172 1.379-3.926a78 78 0 0 1 2.758-5.828c1.074-2.027 2.191-3.773 3.355-5.23 1.18-1.453 2.191-2.113 3.043-1.977q1.923.106 2.445 2.187.545 2.079.258 5.281-.258 3.198-.961 6.812l-1.172 6.816c-.312 2.133-.434 3.93-.363 5.383q.13 2.188 1.406 2.395.832.104 2.367-1.637 1.559-1.77 3.434-4.684a91 91 0 0 0 3.719-6.453q1.874-3.509 3.355-6.812.211-.445.469-.391.285.053.078.492a84 84 0 0 1-3.199 6.766 122 122 0 0 1-3.641 6.449q-1.798 2.967-3.461 4.891c-1.094 1.285-2.062 1.961-2.914 2.031zm35.043-28.875-.598 6.605-.727 8.352a194 194 0 0 1-.91 8.687 253 253 0 0 0 5.148-3.77q2.942-2.187 5.879-5.047a32.8 32.8 0 0 0 5.074-6.402q.207-.439.414-.285c.207.154.141.305 0 .598a29.5 29.5 0 0 1-5.07 6.609q-3.019 2.965-6.113 5.203l-5.437 3.953a346 346 0 0 1-2.184 15.84q-1.328 8.249-3.254 16.234c-1.926 7.985-2.758 10.309-4.422 14.957q-2.496 6.997-5.59 12.148-3.098 5.175-6.816 7.672-3.72 2.526-8.09 1.664-2.576-.545-4.109-3.797c-1.533-3.252-1.605-5.012-1.746-8.531q-.233-5.257 1.379-11.914 1.588-6.662 5.437-13.969 3.825-7.284 10.223-14.621 6.399-7.359 15.867-14.098l2.133-21.93c-2.199 6.746-4.422 11.699-6.656 14.855s-4.422 4.734-6.555 4.734q-2.992-.212-4.426-2.809c-.953-1.754-1.5-3.781-1.637-6.09q-.233-3.46.418-6.215 1.48-5.982 4.836-8.379c3.356-2.397 4.25-2.391 6.035-2.391q2.443.105 3.562 2.73 1.12 2.6-1.012 6.32a.76.76 0 0 1-.367.34q-.258.105-.258-.34c1.402-2.48 1.734-4.516.988-6.113s-1.785-2.359-3.121-2.289q-1.927.418-3.695 2.992-1.741 2.55-3.043 6.113-1.273 3.563-1.637 7.074c-.364 3.511-.105 4.301.414 5.879q.807 2.345 3.148 2.445 3.305.106 6.762-6.059 3.462-6.194 6.66-16.547c.363-1.195 1.008-1.828 1.926-1.898s1.309.426 1.168 1.484zm-32.07 92.371q4.81-.106 8.582-4.109 3.775-3.983 6.711-10.797c2.936-6.814 3.652-9.641 5.074-15.297s2.609-11.512 3.562-17.582 1.754-11.984 2.395-17.742c-6.609 4.977-12.043 10.043-16.312 15.191q-6.37 7.726-9.934 15.113-3.593 7.416-4.812 13.867c-1.219 6.451-1.078 8.062-.781 11.289q.415 4.84 1.949 7.492 1.534 2.679 3.566 2.574zm61.27-88q-1.61.206-3.59 2.73-1.952 2.496-4.031 6.27a114 114 0 0 0-3.953 7.879 173 173 0 0 0-3.227 7.625l-.34 1.379c-.207.777-.613 1.352-1.223 1.715q-.908.522-1.637 0-.754-.546-.547-2.445 2.237-21.434 5.852-37.953 3.645-16.516 8.168-27.652c4.523-11.136 6.141-12.867 9.367-16.336q4.864-5.226 9.336-4.055 2.758.751 3.125 3.898.388 3.122-.965 7.937c-.883 3.187-2.176 6.684-3.875 10.48s-3.617 7.691-5.75 11.68q-3.2 5.96-6.504 11.344c-3.304 5.384-4.266 6.789-6.187 9.598q-2.863 4.188-4.684 6.32l-2.031 11.109-1.168 6.477a102 102 0 0 0-.625 3.848c.848-2.133 1.891-4.488 3.121-7.074a111 111 0 0 1 3.902-7.414q2.03-3.536 4.059-5.879c2.029-2.343 2.594-2.34 3.719-2.34q2.133-.105 3.043 1.77c.609 1.23.945 2.824 1.016 4.785s-.027 4.039-.285 6.242l-.676 6.297q-.315 2.966-.262 4.941c.053 1.975.34 2.012.91 2.082.555.066 1.344-.504 2.367-1.719 1.039-1.215 2.203-2.844 3.484-4.891q1.927-3.094 3.824-6.867a83 83 0 0 0 3.41-7.621q.234-.441.492-.262.262.158.051.469c-2.633 6.469-5.219 11.723-7.75 15.766q-3.772 6.06-6.426 5.75c-1.281-.141-2.176-.867-2.68-2.187q-.727-1.974-.676-4.992.053-3.046.363-6.297l.652-6.113q.311-2.889.102-4.629-.206-1.77-1.273-1.664zm13.945-60.09q-2.969-.55-5.855 2.445-2.858 2.988-5.594 8.637c-1.801 3.762-3.512 8.199-5.121 13.316q-2.396 7.676-4.422 16.57a300 300 0 0 0-3.512 18.262q3.406-4.267 7.176-10.121a220 220 0 0 0 7.469-12.406 203 203 0 0 0 6.656-12.824c1.996-4.195 3.539-8.039 4.633-11.523q1.663-5.23 1.457-8.586c-.206-3.356-1.102-3.492-2.887-3.77zm5.859 83.629q-3.616-.104-4.449-5.254-.856-5.175 1.586-13.918 1.067-2.988 2.445-2.836c1.378.152 1.207 1.051.859 2.836l-1.508 6.297a72 72 0 0 0-1.121 5.906q-.363 2.702.105 4.473c.328 1.16 1.059 1.785 2.184 1.871q1.51.106 3.203-1.82c1.145-1.281 2.277-2.914 3.406-4.891a87 87 0 0 0 3.25-6.242l2.734-5.801q.099-.233.363-.156.26.053.051.363-3.826 8.74-7.023 14.023c-2.133 3.5-4.16 5.219-6.086 5.148zm0-29.941c.434-1.211 1.074-1.777 1.926-1.687q1.272.1.855 1.793-.312 1.377-1.168 1.77-.86.364-1.457-.156-.574-.545-.156-1.719zm20.152 25.156c2.203-.141 4.363-1.43 6.477-3.875 2.137-2.465 4.555-6.035 7.258-10.719.141-.227.277-.293.418-.207q.234.104 0 .414a83 83 0 0 1-4.473 7.414c-1.562 2.309-3.141 4.152-4.734 5.543-1.598 1.367-3.246 2.055-4.945 2.055q-3.951.001-5.723-2.395-1.742-2.39-1.949-6.164a41.3 41.3 0 0 1 .312-7.727q.961-5.334 3.457-8.48c2.496-3.146 3.602-2.828 5.801-2.184q1.51.416 1.668 2.234c.158 1.818-.133 2.535-.703 3.957-.555 1.422-1.387 2.59-2.496 3.512q-1.641 1.377-4.008 1.066a44 44 0 0 0-.625 7.359q.001 3.617 1.016 5.957c1.015 2.34 1.762 2.309 3.25 2.238zm1.797-25.777q-1.589-.445-2.809 1.793c-1.22 2.238-1.512 3.441-2.082 5.852l-.207 1.094-.211 1.039c1.336.297 2.516 0 3.539-.883a8.26 8.26 0 0 0 2.316-3.305c.5-1.316.727-2.523.676-3.613q-.051-1.665-1.223-1.977zm0 0"/><g clip-path="url(#c)"><path d="M142.09 342.754c-14.648 15.242-29.996 14.121-46.766 2.949-11.828-7.617-22.059-18.273-35.723-22.566-10.316-3.242-20.945-.18-29.383 6.227-2.852 2.031-5.41 4.438-7.875 6.914a1.6 1.6 0 0 1-2.289.027 1.6 1.6 0 0 1 .121-2.379c4.52-3.637 9.242-7.031 14.434-9.656 7.977-4.02 16.82-5.355 25.426-2.586 22.746 6.754 41.555 38.641 67.504 29.766 5.242-1.969 9.695-5.602 13.641-9.586a.63.63 0 0 1 .902 0 .63.63 0 0 1 0 .898zm0 0"/></g><g fill="gray"><path d="M184.188 165.006q2.484.58 2.625 2.953c.141 2.373-.406 3.602-1.5 6.047q-1.63 3.657-4.547 8c-1.937 2.887-4.164 5.836-6.672 8.844s-5.141 5.891-7.891 8.641q-4.126 4.112-8.094 7.234a144 144 0 0 0-2.359 6.625q-1.066 3.27-1.594 6c-.528 2.73-.477 3.293-.359 4.406q.186 1.674 1.328 1.813.703.064 2.297-1.25 1.606-1.311 3.734-3.687 2.14-2.39 4.406-5.547a82 82 0 0 0 4.344-6.719q.141-.218.281-.172.141.033 0 .313a55.5 55.5 0 0 1-3.703 6.047 68 68 0 0 1-4.375 5.641q-2.238 2.597-4.078 4.203-1.845 1.595-2.906 1.672-2.848.206-3.234-3.953c-.386-4.159.438-6.453 2.094-11.047q-2.847 3.627-5.344 5.766c-1.656 1.418-3.008 1.887-4.047 1.406q-1.704-.843-1.844-2.969-.142-2.14.813-4.766a22.2 22.2 0 0 1 2.641-5.047q1.669-2.419 3.719-3.812 2.062-1.39 3.984-1.031 1.062.22 1.531 1.672c.469 1.452.414 2.234.313 3.797q3.621-9.592 7.641-17.297 4.03-7.719 7.891-13.109 3.873-5.405 7.219-8.172 3.342-2.78 5.688-2.5zm-.359.578q-1.77-.153-4.266 2.297-2.486 2.455-5.359 6.766-2.877 4.3-5.766 9.672a213 213 0 0 0-5.5 11.016 187 187 0 0 0-4.625 10.75q4.546-3.686 8.781-8.062c4.235-4.376 5.426-5.863 7.813-8.844q3.591-4.482 6.25-8.594c1.781-2.75 3.117-5.227 4.016-7.437q1.357-3.311 1.109-5.328-.25-2.029-2.453-2.234zm-30.203 35.391q-1.346-.14-2.875 1.469-1.533 1.596-2.844 4.047a35 35 0 0 0-2.203 4.969q-.89 2.519-1.078 4.375-.175 1.845.688 2.125.843.283 2.375-.812 1.529-1.107 3.344-3.062a41 41 0 0 0 3.375-4.156q.217-.639.422-1.312a14 14 0 0 1 .5-1.312q.218-2.483-.141-4.375c-.359-1.892-.762-1.91-1.562-1.953zm0 0"/><use href="#d"/><use href="#e"/><use x="14.781" href="#e"/><use x="43.705" href="#d"/></g><path fill="none" stroke="#fdf6f8" stroke-width="2.665" d="M181.047 161.867q2.479.575 2.621 2.949.153 2.378-1.492 6.039-1.635 3.662-4.547 8c-2.912 4.338-4.172 5.844-6.684 8.852a129 129 0 0 1-7.895 8.641q-4.113 4.112-8.086 7.234a146 146 0 0 0-2.359 6.629q-1.06 3.263-1.598 6.004-.518 2.724-.344 4.406c.113 1.113.555 1.715 1.316 1.805q.715.072 2.309-1.246c1.594-1.318 2.309-2.113 3.73-3.699s2.891-3.43 4.406-5.535a85 85 0 0 0 4.34-6.715c.094-.148.184-.215.277-.191s.094.133 0 .332a56 56 0 0 1-3.695 6.039 71 71 0 0 1-4.375 5.656q-2.237 2.585-4.094 4.18-1.839 1.597-2.898 1.684-2.844.211-3.242-3.937c-.258-2.777.445-6.469 2.098-11.07q-2.845 3.625-5.328 5.762c-2.483 2.137-3.008 1.895-4.059 1.422q-1.7-.85-1.84-2.984c-.14-2.134.18-3.008.816-4.754a22 22 0 0 1 2.621-5.051q1.68-2.43 3.73-3.801 2.065-1.39 3.988-1.039 1.06.205 1.527 1.664c.467 1.459.422 2.246.332 3.816 2.406-6.395 4.945-12.164 7.617-17.297 2.684-5.148 5.312-9.523 7.895-13.121q3.885-5.413 7.219-8.172 3.346-2.777 5.691-2.5zm-.363.574q-1.774-.14-4.27 2.309c-1.656 1.629-3.441 3.879-5.363 6.75-1.906 2.867-3.824 6.09-5.742 9.664a215 215 0 0 0-5.52 11.02 189 189 0 0 0-4.613 10.773c3.027-2.461 5.957-5.152 8.777-8.066s5.426-5.867 7.809-8.852q3.593-4.477 6.246-8.59 2.676-4.126 4.027-7.426c.902-2.207 1.266-3.992 1.094-5.344q-.244-2.033-2.445-2.238zm-30.195 35.398q-1.354-.156-2.879 1.457-1.53 1.6-2.848 4.043a34.6 34.6 0 0 0-2.203 4.98c-.59 1.676-.949 3.137-1.074 4.371q-.175 1.839.676 2.137.866.278 2.395-.816 1.529-1.111 3.332-3.055a40 40 0 0 0 3.383-4.164l.418-1.32a15 15 0 0 1 .504-1.316q.206-2.482-.156-4.355c-.234-1.262-.746-1.914-1.547-1.961zm19.477 17.125q2.273-.136 4.82-2.586 2.554-2.461 6.039-7.148.142-.223.277-.137.159.069.02.277a96 96 0 0 1-3.887 4.945q-1.944 2.308-3.801 3.695c-1.227.914-2.41 1.371-3.559 1.371q-2.618.001-3.52-1.598-.885-1.594-.609-4.113a26.6 26.6 0 0 1 1.145-5.152q1.283-3.558 3.352-5.656c2.069-2.098 2.746-1.887 4.109-1.457.625.184.898.684.816 1.492q-.104 1.213-.918 2.637c-.814 1.424-1.246 1.73-2.102 2.344q-1.265.918-2.758.711a33 33 0 0 0-1.285 4.91q-.433 2.414-.051 3.973.398 1.564 1.91 1.492zm4.25-17.195q-.989-.294-2.102 1.199c-.727.992-1.422 2.297-2.082 3.902q-.293.644-.5 1.422 1.281.297 2.445-.59a7.8 7.8 0 0 0 1.961-2.203q.781-1.32.918-2.41.14-1.111-.641-1.32zm8.883 18.395c1.285.148 3.039-.734 5.258-2.656 2.234-1.918 4.676-4.68 7.324-8.277q.207-.293.383-.223c.125.043.121.164-.02.363a49 49 0 0 1-3 3.836 47 47 0 0 1-3.559 3.73q-1.84 1.735-3.504 2.738-1.668.99-2.949.852-2.068-.276-2.676-2.344-.587-2.063-.207-5.187.4-3.14 1.422-6.574a77 77 0 0 1 2.238-6.508c2.039-5.266 4.187-10.047 6.457-14.352 2.277-4.312 4.57-8.012 6.871-11.086 2.301-3.09 4.473-5.391 6.508-6.906s3.812-2.082 5.328-1.703q1.922.433 1.77 2.883-.14 2.443-1.84 6.211c-1.7 3.768-2.625 5.273-4.477 8.293a112 112 0 0 1-6.266 9.094 131 131 0 0 1-7.199 8.711c-2.488 2.742-4.918 5.105-7.289 7.098q-1.77 6.035-1.699 8.953c.071 2.918.422 2.961 1.125 3.055zm25.664-53.863q-1.63-.432-4.059 1.598-2.415 2.032-5.223 5.934c-2.808 3.902-3.773 5.699-5.691 9.285-1.91 3.574-3.73 7.445-5.469 11.609a126 126 0 0 0-4.512 12.855q3.421-2.913 6.996-6.957a148 148 0 0 0 7.008-8.52 113 113 0 0 0 6.145-8.887q2.742-4.405 4.406-8.066 1.684-3.66 1.891-6.039.21-2.397-1.492-2.812zm-10.883 53.863c1.285.148 3.039-.734 5.258-2.656 2.234-1.918 4.676-4.68 7.324-8.277q.21-.293.383-.223.19.064-.02.363a49 49 0 0 1-3 3.836 46 46 0 0 1-3.559 3.73q-1.84 1.735-3.504 2.738-1.665.99-2.949.852-2.069-.276-2.672-2.344-.592-2.063-.211-5.187.4-3.14 1.426-6.574a74 74 0 0 1 2.238-6.508c2.035-5.266 4.187-10.047 6.453-14.352 2.277-4.312 4.57-8.012 6.871-11.086 2.301-3.09 4.473-5.391 6.508-6.906s3.812-2.082 5.328-1.703q1.922.433 1.77 2.883-.14 2.443-1.84 6.211c-1.7 3.768-2.625 5.273-4.477 8.293a112 112 0 0 1-6.266 9.094 131 131 0 0 1-7.199 8.711c-2.488 2.742-4.918 5.105-7.289 7.098q-1.77 6.035-1.699 8.953c.071 2.918.422 2.961 1.125 3.055zm25.664-53.863q-1.63-.432-4.059 1.598-2.412 2.032-5.223 5.934c-2.811 3.902-3.773 5.699-5.691 9.285q-2.864 5.362-5.465 11.609a124 124 0 0 0-4.512 12.855q3.417-2.913 6.992-6.957a148 148 0 0 0 7.008-8.52 113 113 0 0 0 6.145-8.887q2.742-4.405 4.406-8.066 1.683-3.66 1.891-6.039.213-2.397-1.492-2.812zm-9.875 52.664q2.275-.136 4.824-2.586c1.699-1.641 3.715-4.023 6.039-7.148q.14-.223.277-.137.156.069.016.277a93 93 0 0 1-3.887 4.945c-1.293 1.539-2.562 2.77-3.797 3.695q-1.841 1.371-3.559 1.371-2.62.001-3.523-1.598-.886-1.594-.605-4.113a26.6 26.6 0 0 1 1.145-5.152q1.284-3.558 3.348-5.656c2.064-2.098 2.75-1.887 4.113-1.457q.938.278.816 1.492-.103 1.213-.922 2.637c-.819 1.424-1.242 1.73-2.098 2.344q-1.268.918-2.758.711a32.6 32.6 0 0 0-1.285 4.91c-.289 1.609-.309 2.934-.051 3.973q.4 1.563 1.906 1.492zm4.254-17.195q-.989-.294-2.102 1.199c-.73.992-1.422 2.297-2.082 3.902q-.292.644-.504 1.422 1.284.297 2.445-.59a7.8 7.8 0 0 0 1.961-2.203q.783-1.32.922-2.41.14-1.112-.641-1.32zm0 0"/><path fill="gray" d="M105.205 72.839q1.906.207 4.719-2.641 2.824-2.858 5.859-8.219c.094-.187.195-.254.313-.203q.188.063.047.344a33 33 0 0 1-2.297 3.813 48 48 0 0 1-2.859 3.703q-1.472 1.72-2.984 2.703c-1.512.983-1.945.938-2.797.844-1.406-.187-2.43-.957-3.062-2.312q-.954-2.045-1.094-5.156c-.14-3.111-.008-4.25.25-6.531s.598-4.43 1.016-6.453c1.082-5.219 2.383-9.961 3.906-14.234q2.296-6.42 4.875-11 2.577-4.594 5.219-6.844 2.656-2.264 5.047-1.703 1.97.421 2.25 2.859.294 2.439-.734 6.172-1.02 3.737-3 8.219a90 90 0 0 1-4.625 9.031 97 97 0 0 1-5.641 8.641q-2.989 4.08-5.953 7.047-.704 6.001-.141 8.891c.563 2.89.938 2.938 1.688 3.031zm16.016-53.469q-1.689-.422-3.734 1.594-2.05 2.002-4.172 5.891-2.11 3.878-4.016 9.203c-1.906 5.325-2.402 7.398-3.391 11.531q-1.47 6.204-2.25 12.766 2.89-2.888 5.75-6.906a108 108 0 0 0 5.422-8.469 93 93 0 0 0 4.516-8.812q1.952-4.372 3-8 1.06-3.639.844-6-.205-2.374-1.969-2.797zm0 0"/><path fill="none" stroke="#fdf6f8" stroke-width="2.645" d="M102.098 69.715q1.894.222 4.719-2.633c2.825-2.855 3.832-4.645 5.855-8.215q.137-.293.309-.223c.125.043.145.164.051.359a33 33 0 0 1-2.305 3.805c-.91 1.32-1.855 2.555-2.844 3.703s-1.992 2.055-3.012 2.719q-1.516.984-2.773.844-2.115-.275-3.082-2.324c-.629-1.363-.992-3.082-1.082-5.148q-.139-3.112.238-6.523l1.035-6.457q1.616-7.834 3.906-14.238 2.29-6.421 4.855-11.004 2.583-4.594 5.219-6.852 2.649-2.256 5.062-1.687 1.963.428 2.238 2.859.293 2.426-.742 6.164c-.676 2.488-1.676 5.234-2.996 8.23a88 88 0 0 1-4.613 9.02 98 98 0 0 1-5.629 8.645q-2.999 4.078-5.957 7.043-.708 5.988-.156 8.883c.379 1.93.945 2.937 1.703 3.031zm15.996-53.445q-1.689-.429-3.734 1.586-2.032 2.012-4.152 5.887c-2.12 3.875-2.754 5.652-4.027 9.211q-1.893 5.32-3.375 11.52c-1.482 6.2-1.738 8.387-2.254 12.758 1.914-1.926 3.828-4.23 5.73-6.902s3.715-5.492 5.426-8.453a95 95 0 0 0 4.527-8.816q1.947-4.376 2.996-8.008c1.049-3.632.98-4.418.844-5.992q-.206-2.373-1.98-2.789zm0 0"/><path fill="gray" d="M139.638 32.98q.561.503.25.859a.78.78 0 0 1-.781.25q-.457-.107-.391-.969.139-.762.875-1.078.75-.328.891-.328.077 0 .078.078 0 .065-.141.141-.281.063-.562.484c-.281.421-.262.469-.219.563m0 0"/><path fill="none" stroke="#fdf6f8" stroke-width="2.645" d="M136.527 29.871q.567.502.238.863-.31.343-.773.238c-.463-.105-.441-.391-.395-.961.102-.52.398-.879.895-1.086q.738-.328.879-.328.065-.001.066.086-.001.072-.137.137-.294.072-.57.5-.275.416-.203.551zm0 0"/><g clip-path="url(#f)"><path d="M130.625 172.887c28.465-19.414 58.77-31.297 92.652-17.992l5.359 2.227c6.859 3.039 13.566 7.574 21.273 7.047 12.145-.977 16.383-15.449 15.512-25.816-.273-2.082-.473-4.637-2.145-6.023-3.008-2.305-4.703 2.082-5.418 4.594-.516 1.789-.871 3.68-1.094 5.52a.74.74 0 0 1-.828.652c-2.273-1.504-4.082-3.332-6.824-4.551-2.02-.957-4.922-1.863-6.207.504-4.066 6.402 12.934 17.359 17.445 20.832 14.324 10.355 30.738 11.008 46.953 4.848 38.043-13.766 73.238-55.691 116.625-46.785 10.703 2.293 20.043 8.148 28.875 14.395.715.508.895 1.496.391 2.211a1.6 1.6 0 0 1-2.43.211c-7.414-7.5-17.047-12.672-27.246-15.016-47.645-10.266-86.656 44.73-131.43 50.051-10.789 1.211-21.844-1.66-30.832-7.695-4.461-2.965-8.793-6.176-12.828-9.695-4.082-3.512-11.559-10.98-5.113-15.773 4.398-2.031 9.949 2.574 13.199 5.184l-1.23.473c.379-2.953.934-5.855 2.176-8.59 1.387-3.305 4.457-4.902 7.32-2.008 1.555 1.828 1.848 4.266 2.121 6.527 1.199 17.855-9.23 33.523-28.422 25.207-3.617-1.59-6.941-3.367-10.43-4.934l-5.289-2.195-5.406-1.863c-30.863-10.293-60.422 2.188-85.891 19.688a.746.746 0 0 1-.84-1.23zm0 0"/></g><g fill="gray"><path d="M150.634 65.187q3.202-16.936 7.891-25.984 4.686-9.06 9.688-8.328c2.133.293 2.938 1.75 2.406 4.375s-2.133 6.141-4.797 10.547-6.203 9.484-10.609 15.234q-1.595 7.784-2.562 17.594a446 446 0 0 0-1.484 19.813q3.515-1.498 6.391-2.984 2.872-1.5 3.734-4.687-.534-.528.156-.844c.469-.219.664-.008.594.625q-.86 3.627-3.953 5.391c-2.055 1.168-4.359 2.246-6.922 3.234q-.532 11.407-.484 20.688c.039 6.18.395 11.25 1.063 15.219q1.014 5.967 3.469 7.469 1.7 1.06 3.141.047 1.453-1.02 2.625-3.047a21 21 0 0 0 1.859-4.203q.685-2.175.906-3.453-.534-.533.156-.797c.69-.264.617.051.484.688q-1.066 6.715-4.047 9.797-2.988 3.093-5.437 1.703c-3.199-1.844-5.387-6.43-6.562-13.75q-1.752-10.966-1.219-29.281a65 65 0 0 1-8.75 1.766q-4.469.58-10 .891a339 339 0 0 1-13.156 18.016c-4.512 5.75-9.059 10.789-13.641 15.125s-9.062 7.563-13.437 9.688c-4.367 2.133-8.531 2.773-12.5 1.922q-4.705-1.065-8.062-4.375-3.346-3.3-5.109-8.141-1.75-4.846-1.703-10.437.06-5.592 2.188-11.234 2.122-5.653 6.547-10.656c2.945-3.344 6.734-6.187 11.359-8.531q5.327-2.671 8.938-1.703 3.622.956 5.281 4.203c1.659 3.247 1.367 4.602.797 7.297q6.919-1.06 15.391-1.266l16.781-.656c3.625-5.25 7.211-10.961 10.766-17.141a734 734 0 0 1 11.828-19.828zm-74.906 81.938q10.452 2.028 23.078-9.375c12.626-11.403 17.984-19.219 28.703-34.844-5.469.281-10.992.461-16.562.531s-10.637.465-15.187 1.172q-1.173 4.486-3.359 7.25-2.174 2.767-4.687 4.109-2.502 1.33-4.641 1.547-2.126.205-3.297-.328c-.418-.219-.84-.695-1.266-1.437q-.644-1.123-.484-2.609.155-1.499 1.75-3.203 1.606-1.7 5.328-3.187 3.731-1.499 10.234-2.562.95-4.044-.75-7.141c-1.7-3.097-2.93-3.359-5.375-3.891s-5.414.164-8.891 2.078q-8.111 4.487-12.484 10.719-4.361 6.222-5.641 12.938c-1.28 6.716-.84 8.742.047 12.781q1.343 6.075 4.859 10.234c3.516 4.159 5.219 4.508 8.625 5.219zm74.687-80.656a542 542 0 0 0-10.016 17.047 283 283 0 0 1-11.5 18.641q5.326-.31 9.75-.953c4.424-.643 5.805-1.031 8.578-1.812a281 281 0 0 1 1.156-17.469c.57-5.758 1.25-10.91 2.031-15.453zm5.016-6.812q4.265-5.543 7.609-10.547 3.357-5.016 5.219-8.953 1.875-3.951 1.922-6.297.06-2.343-2.172-2.437-2.894-.218-6.297 6.813c-3.403 7.031-4.367 11.828-6.281 21.422zm-75.547 57.109q.64.422 2.563.266 1.922-.17 4.359-1.391 2.451-1.216 4.75-3.828 2.296-2.624 3.672-7.094-6.504.957-10.172 2.609c-3.668 1.652-4.172 2.277-5.172 3.516q-1.487 1.863-1.281 3.469.216 1.596 1.281 2.453m0 0"/><use x="-.826" y="-192.269" href="#a"/><use x="-.826" y="-192.269" href="#b"/><path d="M262.178 95.874q-2.344 5.22-5.328 7.094-2.987 1.861-6.391 1.438-2.034 3.938-4.484 5.484-2.437 1.547-3.937 1.547-2.987.001-4.75-2.5c-1.168-1.676-1.867-3.789-2.109-6.344q-.373-3.844.578-7.828.95-3.996 3.453-7.031 2.513-3.046 6.563-4 2.029-.434 3.406.469 1.39.908 1.813 2.297c.423 1.389.141 1.813-.422 2.656q-.222.44-.375.172c-.153-.268-.09-.375.047-.594q.749-1.28.109-2.5a4.2 4.2 0 0 0-1.922-1.859q-1.268-.639-2.547 0-2.034.737-3.734 3.625-1.704 2.877-2.828 6.656-1.112 3.785-1.375 7.453c-.263 3.668.051 4.512.688 6.188q.95 2.503 3.406 2.609 1.172.096 3.563-1.437 2.403-1.546 4.219-5.172-2.876-.969-4-2.984-1.112-2.028-.906-4.156.218-2.14 1.391-3.734c1.173-1.594 1.703-1.664 2.766-1.812q2.452-.31 3.25 1.828.795 2.127.313 5.109-.47 2.97-1.859 5.313 3.733.44 6.5-2.016c1.852-1.633 3.313-3.66 4.375-6.078q.216-.42.484-.312c.268.108.191.215.047.422zM249.6 92.14q-1.706 0-2.766 1.438c-1.06 1.438-1.137 2.133-1.281 3.516q-.207 2.08.859 3.953 1.061 1.863 3.734 2.719c.914-1.707 1.516-3.445 1.797-5.219q.434-2.67-.094-4.531-.532-1.875-2.25-1.875zm0 0"/><path d="M267.927 112.077c1.914.211 4.297-1.125 7.141-4s5.789-7.016 8.844-12.422q.216-.42.484-.312c.268.108.191.25.047.531q-1.378 2.767-3.453 5.75a68 68 0 0 1-4.328 5.594q-2.236 2.611-4.531 4.109-2.283 1.487-4.203 1.281-3.188-.433-4.625-3.516-1.44-3.093-1.656-7.781c-.216-4.688-.023-6.41.359-9.859l1.563-9.75q2.45-11.824 5.906-21.516 3.47-9.702 7.359-16.625c3.889-6.923 5.219-8.055 7.875-10.328q3.997-3.42 7.625-2.562 2.983.644 3.406 4.313c.423 3.669-.094 5.559-1.125 9.328q-1.534 5.644-4.516 12.406c-2.982 6.762-4.32 9.059-6.984 13.641s-5.512 8.938-8.531 13.063q-4.518 6.176-9 10.641c-.711 6.043-.781 10.523-.219 13.438q.856 4.36 2.563 4.578zm24.188-80.766q-2.547-.639-5.641 2.391c-3.094 3.03-4.164 4.992-6.297 8.906q-3.19 5.86-6.062 13.906-2.876 8.032-5.125 17.406a168 168 0 0 0-3.406 19.297c2.914-2.914 5.813-6.395 8.688-10.437q4.312-6.076 8.203-12.797c3.891-6.721 4.863-8.914 6.813-13.312q2.937-6.609 4.531-12.094c1.07-3.664 1.5-6.687 1.281-9.062-.211-2.375-1.203-3.773-2.984-4.203zm0 0"/><path d="M310.228 95.874q-2.344 5.22-5.328 7.094-2.987 1.861-6.391 1.438-2.034 3.938-4.484 5.484-2.437 1.547-3.937 1.547-2.987.001-4.75-2.5c-1.168-1.676-1.867-3.789-2.109-6.344q-.373-3.844.578-7.828.95-3.996 3.453-7.031 2.514-3.046 6.563-4 2.029-.434 3.406.469 1.39.908 1.813 2.297c.423 1.389.141 1.813-.422 2.656q-.222.44-.375.172c-.153-.268-.09-.375.047-.594q.749-1.28.109-2.5a4.2 4.2 0 0 0-1.922-1.859q-1.267-.639-2.547 0-2.034.737-3.734 3.625-1.704 2.877-2.828 6.656-1.112 3.785-1.375 7.453c-.263 3.668.051 4.512.688 6.188q.95 2.503 3.406 2.609 1.172.096 3.563-1.437 2.403-1.546 4.219-5.172-2.876-.969-4-2.984-1.112-2.028-.906-4.156.218-2.14 1.391-3.734c1.173-1.594 1.703-1.664 2.766-1.812 1.633-.207 2.719.402 3.25 1.828q.795 2.127.313 5.109-.47 2.97-1.859 5.313 3.733.44 6.5-2.016c1.852-1.633 3.313-3.66 4.375-6.078q.216-.42.484-.312c.268.108.191.215.047.422zM297.65 92.14q-1.706 0-2.766 1.438c-1.06 1.438-1.137 2.133-1.281 3.516q-.207 2.08.859 3.953 1.061 1.863 3.734 2.719c.914-1.707 1.516-3.445 1.797-5.219q.434-2.67-.094-4.531-.532-1.875-2.25-1.875zm0 0"/></g><path fill="none" stroke="#fdf6f8" stroke-width="3.996" d="M145.918 60.477c2.133-11.293 4.762-19.953 7.883-25.988q4.711-9.052 9.703-8.324c2.133.293 2.93 1.762 2.395 4.395q-.78 3.932-4.789 10.535c-4.009 6.603-6.207 9.48-10.613 15.219q-1.584 7.777-2.547 17.586c-.963 9.809-1.137 13.145-1.484 19.82a90 90 0 0 0 6.375-2.965c1.926-1.008 3.172-2.574 3.746-4.707q-.549-.52.156-.836.703-.336.598.625-.86 3.616-3.953 5.387-3.097 1.742-6.922 3.25c-.363 7.598-.527 14.488-.492 20.68.035 6.176.391 11.246 1.066 15.219q1.014 5.983 3.457 7.465 1.718 1.068 3.148.051c.973-.676 1.848-1.687 2.629-3.043s1.395-2.758 1.848-4.211q.699-2.187.91-3.461-.523-.522.156-.809c.465-.172.633.062.492.703-.711 4.477-2.062 7.742-4.059 9.809s-3.805 2.637-5.434 1.715q-4.788-2.782-6.559-13.758-1.739-10.978-1.223-29.293a66 66 0 0 1-8.738 1.77c-2.984.383-6.32.676-10.016.883a335 335 0 0 1-13.164 18.027c-4.508 5.742-9.051 10.777-13.629 15.113s-9.051 7.57-13.422 9.703-8.543 2.766-12.512 1.898q-4.71-1.038-8.066-4.344c-3.356-3.306-3.945-4.926-5.125-8.168-1.16-3.223-1.723-6.703-1.687-10.43s.762-7.477 2.184-11.238 3.605-7.309 6.555-10.641c2.949-3.344 6.73-6.199 11.344-8.555q5.331-2.657 8.945-1.691 3.646.962 5.281 4.215c1.109 2.164 1.379 4.594.809 7.281q6.918-1.068 15.371-1.273l16.805-.652q5.439-7.882 10.742-17.141a802 802 0 0 1 11.836-19.82zm-74.891 81.937q10.434 2.029 23.047-9.391 12.646-11.393 28.719-34.832-8.191.446-16.57.547-8.35.105-15.164 1.172-1.17 4.475-3.355 7.258-2.186 2.756-4.707 4.082-2.501 1.33-4.633 1.535-2.104.21-3.301-.313-.627-.31-1.277-1.43-.62-1.119-.469-2.602.158-1.506 1.746-3.199 1.612-1.717 5.332-3.199 3.743-1.507 10.223-2.574c.641-2.687.391-5.066-.754-7.129q-1.692-3.094-5.359-3.875-3.667-.807-8.898 2.055c-5.391 2.984-9.547 6.555-12.457 10.719s-4.805 8.477-5.672 12.953c-.852 4.473-.832 8.73.051 12.773q1.353 6.084 4.863 10.223 3.516 4.16 8.637 5.227zm74.684-80.664c-3.191 5.184-6.527 10.871-10.016 17.062a286 286 0 0 1-11.496 18.625q5.308-.312 9.727-.934a68 68 0 0 0 8.586-1.824 273 273 0 0 1 1.172-17.48q.855-8.636 2.027-15.449zm5.02-6.816q4.24-5.543 7.598-10.535c2.238-3.348 3.98-6.328 5.227-8.949q1.874-3.955 1.926-6.293c.052-2.338-.691-2.375-2.184-2.445-1.926-.141-4.023 2.133-6.297 6.812s-4.359 11.82-6.27 21.41zm-75.539 57.125c.414.277 1.266.363 2.547.258s2.742-.562 4.371-1.379 3.211-2.086 4.734-3.82q2.29-2.63 3.668-7.102-6.474.962-10.172 2.625-3.666 1.642-5.176 3.512c-.988 1.23-1.414 2.387-1.273 3.461.156 1.059.59 1.871 1.301 2.445zm107.062-.754q-3.951.312-3.953-8.09 0-2.784.469-6.348l1.016-6.816q.545-3.252.703-5.437c.158-2.185-.055-2.219-.469-2.289-.363-.066-1.137.59-2.316 1.977q-1.741 2.057-3.98 6.324c-2.239 4.267-2.879 6.398-4.16 10.664-.211.918-.754 1.492-1.641 1.715q-1.326.315-1.223-1.402l.418-4.086q.206-1.77.547-3.691l.727-4.684q.34-2.028 1.223-2.551c.605-.363 1.164-.344 1.664.055q.757.57.418 1.977l-.676 4.293q-.156 1.117-.289 1.508a10 10 0 0 0-.207 1.117q-.104.733-.625 3.199c.141-.777.598-2.09 1.379-3.926a78 78 0 0 1 2.758-5.828c1.074-2.027 2.195-3.773 3.355-5.227q1.77-2.186 3.043-1.98 1.929.106 2.445 2.187.55 2.081.262 5.281a64 64 0 0 1-.961 6.812q-.68 3.616-1.172 6.816-.47 3.2-.363 5.387c.086 1.453.555 2.254 1.402 2.391q.833.104 2.367-1.637 1.564-1.77 3.434-4.684a90 90 0 0 0 3.719-6.449 114 114 0 0 0 3.359-6.816q.206-.444.465-.391.288.052.078.492a84 84 0 0 1-3.199 6.766 116 116 0 0 1-3.641 6.449c-1.195 1.977-2.352 3.609-3.461 4.891q-1.635 1.927-2.914 2.031zm35.047-28.875-.598 6.605-.73 8.352a188 188 0 0 1-.91 8.687 238 238 0 0 0 5.152-3.77q2.936-2.187 5.879-5.047a33 33 0 0 0 5.07-6.398c.141-.297.277-.391.418-.289s.137.305 0 .598a29.3 29.3 0 0 1-5.074 6.609q-3.016 2.965-6.113 5.203l-5.434 3.953a347 347 0 0 1-2.187 15.84q-1.327 8.249-3.25 16.234c-1.923 7.985-2.758 10.309-4.422 14.957q-2.498 6.997-5.594 12.148-3.095 5.175-6.816 7.672-3.72 2.526-8.09 1.664-2.573-.545-4.109-3.797c-1.536-3.252-1.605-5.012-1.742-8.531q-.233-5.254 1.379-11.914 1.588-6.656 5.437-13.969 3.822-7.284 10.223-14.621 6.399-7.359 15.867-14.098l2.133-21.93q-3.304 10.12-6.66 14.855c-3.356 4.735-4.422 4.734-6.555 4.734-1.992-.141-3.469-1.074-4.422-2.809-.953-1.754-1.5-3.781-1.641-6.09q-.233-3.46.418-6.215 1.483-5.983 4.84-8.375c3.357-2.392 4.246-2.395 6.035-2.395q2.443.105 3.562 2.73 1.118 2.6-1.016 6.32a.77.77 0 0 1-.363.34q-.26.105-.262-.34 2.108-3.719.988-6.113c-1.12-2.394-1.785-2.355-3.121-2.289-1.281.277-2.512 1.277-3.691 2.992q-1.744 2.55-3.043 6.113-1.277 3.563-1.641 7.074c-.364 3.511-.105 4.301.418 5.879.535 1.562 1.586 2.379 3.145 2.445q3.303.105 6.766-6.059 3.456-6.194 6.66-16.547.545-1.793 1.922-1.898c1.377-.105 1.309.426 1.172 1.484zm-32.074 92.371q4.811-.103 8.586-4.109c2.512-2.652 4.75-6.254 6.711-10.797s3.648-9.641 5.07-15.293 2.609-11.516 3.566-17.586a399 399 0 0 0 2.391-17.742q-9.909 7.467-16.309 15.191-6.375 7.729-9.937 15.113c-2.395 4.945-3.996 9.566-4.812 13.867s-1.074 8.062-.781 11.289q.417 4.84 1.953 7.492 1.535 2.679 3.562 2.574zm72.25-83.633q-2.344 5.232-5.332 7.102c-1.996 1.234-4.129 1.699-6.398 1.406-1.355 2.637-2.848 4.473-4.477 5.516q-2.443 1.535-3.926 1.535-2.993.001-4.762-2.5-1.741-2.522-2.105-6.344-.391-3.854.57-7.832.963-4.007 3.461-7.023 2.495-3.041 6.555-4.004 2.029-.445 3.406.465c1.377.91 1.52 1.379 1.797 2.316.293.918.156 1.805-.418 2.652-.137.277-.258.332-.363.156s-.086-.371.051-.598q.756-1.272.105-2.496-.626-1.222-1.926-1.848-1.274-.65-2.547-.027-2.031.756-3.746 3.645-1.693 2.86-2.812 6.656a35 35 0 0 0-1.379 7.469q-.258 3.668.68 6.164.961 2.496 3.434 2.602 1.166.106 3.562-1.43c2.396-1.536 3-2.75 4.215-5.18q-2.889-.931-4.008-2.965c-1.119-2.034-1.047-2.738-.91-4.16s.598-2.664 1.379-3.723q1.197-1.61 2.785-1.82 2.442-.312 3.25 1.82c.808 2.132.641 3.133.312 5.125q-.47 2.965-1.848 5.309 3.721.417 6.477-2.031 2.782-2.443 4.371-6.059c.156-.297.32-.398.496-.312q.257.104.051.414zm-12.59-3.742q-1.692 0-2.758 1.453-1.068 1.433-1.273 3.512c-.205 2.079.145 2.707.855 3.957q1.067 1.846 3.723 2.703 1.377-2.549 1.793-5.203.445-2.677-.105-4.551-.517-1.873-2.234-1.871zm18.344 19.926q2.864.336 7.129-3.98c4.265-4.316 5.793-7.016 8.844-12.41q.211-.44.469-.336c.191.066.215.25.078.543q-1.405 2.761-3.484 5.75-2.056 2.993-4.293 5.594c-2.237 2.601-3.008 3.105-4.555 4.109-1.523.988-2.922 1.414-4.187 1.273-2.133-.277-3.684-1.445-4.656-3.512q-1.43-3.094-1.637-7.777-.212-4.707.363-9.859c.398-3.449.918-6.703 1.562-9.754q2.445-11.837 5.902-21.512 3.463-9.702 7.336-16.621 3.903-6.948 7.883-10.355 4.006-3.406 7.648-2.547 2.964.65 3.379 4.316c.297 2.445-.078 5.551-1.117 9.312-1.023 3.762-2.531 7.91-4.527 12.434q-2.966 6.767-6.969 13.633a147 147 0 0 1-8.508 13.059q-4.524 6.164-9 10.637c-.711 6.035-.789 10.512-.234 13.422q.86 4.37 2.574 4.582zm24.168-80.746q-2.55-.652-5.645 2.395-3.07 3.04-6.27 8.895c-3.2 5.855-4.164 8.543-6.086 13.918q-2.864 8.039-5.102 17.402c-2.238 9.363-2.625 12.668-3.406 19.277q4.344-4.37 8.664-10.434c4.32-6.064 5.609-8.297 8.191-12.773 2.602-4.488 4.883-8.93 6.844-13.316q2.936-6.608 4.523-12.098c1.587-5.49 1.484-6.676 1.277-9.051-.211-2.395-1.207-3.797-2.992-4.215zm18.129 64.562q-2.344 5.232-5.332 7.102a9.52 9.52 0 0 1-6.402 1.406c-1.352 2.637-2.844 4.473-4.473 5.516q-2.445 1.535-3.93 1.535-2.988.001-4.758-2.5c-1.164-1.68-1.863-3.797-2.109-6.344q-.386-3.854.574-7.832.96-4.007 3.461-7.023 2.495-3.041 6.555-4.004 2.029-.445 3.406.465c1.377.91 1.52 1.379 1.797 2.316.293.918.156 1.805-.418 2.652-.141.277-.262.332-.363.156s-.086-.371.051-.598q.756-1.272.105-2.496-.626-1.222-1.926-1.848c-.852-.434-1.699-.441-2.551-.027q-2.029.756-3.746 3.645-1.688 2.86-2.809 6.656a35 35 0 0 0-1.379 7.469q-.257 3.668.676 6.164.967 2.496 3.434 2.602 1.171.106 3.566-1.43c2.395-1.536 3-2.75 4.215-5.18q-2.889-.931-4.008-2.965c-1.119-2.034-1.051-2.738-.91-4.16s.598-2.664 1.379-3.723c.797-1.074 1.727-1.68 2.781-1.82 1.633-.207 2.715.398 3.254 1.82s.641 3.133.313 5.125q-.47 2.965-1.848 5.309 3.722.417 6.477-2.031 2.783-2.443 4.371-6.059c.156-.297.32-.398.492-.312.176.07.191.207.055.414zm-12.59-3.742q-1.692 0-2.758 1.453-1.067 1.433-1.277 3.512c-.21 2.079.148 2.707.859 3.957q1.068 1.846 3.719 2.703 1.382-2.549 1.797-5.203c.293-1.785.262-3.301-.105-4.551q-.517-1.873-2.234-1.871zm0 0"/></svg>