<svg xmlns="http://www.w3.org/2000/svg" xmlns:xlink="http://www.w3.org/1999/xlink" width="500" zoomAndPan="magnify" viewBox="0 0 375 374.999991" height="500" preserveAspectRatio="xMidYMid meet" version="1.0"><defs><clipPath id="8b08f858d8"><path d="M 53 2 L 322.8125 2 L 322.8125 373.21875 L 53 373.21875 Z M 53 2 " clip-rule="nonzero"/></clipPath></defs><g clip-path="url(#8b08f858d8)"><path fill="#000000" d="M 288.863281 373.183594 C 288.851562 373.179688 288.863281 373.222656 288.855469 373.234375 C 288.871094 373.238281 288.863281 373.203125 288.863281 373.183594 Z M 322.257812 166.632812 C 322.191406 161.730469 321.96875 156.75 320.460938 152.050781 C 319.019531 147.546875 317.152344 142.980469 313.78125 139.5625 C 310.796875 136.660156 307.109375 134.265625 303.046875 133.234375 C 297.746094 132.066406 292.050781 133.683594 287.117188 135.65625 C 284.207031 136.9375 281.390625 138.433594 278.660156 140.074219 C 278.484375 139.304688 278.300781 138.535156 278.105469 137.777344 C 277.054688 133.625 275.285156 129.628906 272.570312 126.296875 C 269.902344 122.847656 266.226562 120.390625 262.398438 118.402344 C 254.082031 113.679688 243.289062 113.03125 234.757812 117.546875 C 235.386719 114.183594 235.765625 110.777344 235.796875 107.3125 C 235.960938 101.75 235.226562 96.039062 232.589844 91.0625 C 229.898438 86.332031 224.632812 83.050781 219.65625 81.128906 C 216.222656 79.929688 212.59375 79.402344 209.003906 78.910156 C 201.570312 77.699219 195.183594 80.445312 189.945312 85.039062 C 191.390625 78.078125 191.878906 70.921875 191.613281 63.800781 C 191.464844 59.875 190.941406 55.921875 189.582031 52.21875 C 188.738281 49.886719 187.519531 47.640625 185.671875 45.953125 C 181.71875 42.484375 176.46875 41.054688 171.445312 39.910156 C 169.007812 39.371094 166.535156 38.890625 164.03125 38.945312 C 158.230469 39.125 152.847656 41.710938 148.089844 44.914062 C 144.472656 47.464844 141.640625 50.957031 139.21875 54.625 C 133.65625 62.835938 130.382812 72.414062 128.148438 82.058594 C 125.117188 95.382812 123.238281 108.9375 120.96875 122.410156 C 120.15625 127.964844 119.21875 133.523438 118.054688 139.023438 C 117.429688 129.671875 115.984375 120.535156 110.589844 112.613281 C 110.496094 112.492188 110.402344 112.371094 110.308594 112.25 C 113.332031 107.535156 115.460938 101.09375 115.863281 96.535156 C 117.097656 82.566406 113.042969 65.144531 107.113281 52.515625 C 103.5 44.835938 98.71875 37.398438 91.554688 32.609375 C 86.492188 29.015625 78.984375 26.171875 73.378906 28.976562 C 73.308594 26.492188 73.207031 24.011719 73.09375 21.539062 C 72.742188 15.542969 72.070312 9.558594 71.53125 3.570312 C 71.269531 3.503906 71.015625 3.441406 70.761719 3.378906 C 66.6875 2.386719 63.328125 1.976562 59.550781 2.300781 L 59.402344 2.3125 C 59.332031 2.320312 59.265625 2.324219 59.199219 2.332031 C 59.074219 2.347656 58.953125 2.359375 58.828125 2.371094 C 58.742188 2.378906 58.652344 2.390625 58.566406 2.398438 C 58.445312 2.414062 58.324219 2.429688 58.203125 2.445312 C 58.171875 2.554688 58.136719 2.667969 58.101562 2.785156 C 58.070312 2.898438 58.035156 3.011719 58 3.128906 C 57.527344 4.722656 57.109375 6.335938 56.742188 7.960938 C 54.726562 16.566406 54.398438 25.433594 54.796875 34.257812 C 55.023438 40.742188 55.359375 47.222656 56 53.679688 C 56.414062 57.921875 56.710938 62.1875 57.386719 66.398438 C 57.820312 68.78125 58.234375 71.847656 60.324219 73.28125 C 58.292969 82.09375 55.832031 90.824219 54.421875 99.765625 C 52.144531 119.386719 57.773438 138.726562 59.921875 158.113281 C 62.242188 178.519531 63.195312 199.066406 64.855469 219.53125 C 65.8125 234.578125 66.527344 249.859375 69.957031 264.628906 C 72.828125 277.722656 78.195312 290.085938 84.445312 301.894531 C 91.113281 314.210938 97.777344 326.574219 105.304688 338.398438 C 109.71875 345.386719 114.933594 352.035156 117.765625 359.875 C 115.5625 352.859375 112.023438 346.3125 108.550781 339.839844 C 103.984375 331.410156 99.683594 322.835938 94.929688 314.503906 C 88.378906 302.898438 81.851562 291.175781 77.355469 278.589844 C 72.164062 263.679688 70.328125 247.886719 69.417969 232.191406 C 68.71875 218.453125 67.648438 204.730469 66.675781 191.007812 C 65.941406 179.265625 65.292969 167.414062 63.878906 155.707031 C 62.761719 145.96875 61.125 136.296875 59.523438 126.628906 C 58.082031 117.914062 57.691406 108.980469 58.769531 100.199219 C 59.429688 95.492188 60.753906 90.914062 61.9375 86.320312 C 63.066406 82.046875 64.144531 77.761719 65.027344 73.433594 C 67.347656 72.101562 68.730469 68.796875 69.5 66.316406 C 70.183594 64.339844 70.824219 62.351562 71.242188 60.300781 C 73.179688 51.351562 73.59375 42.203125 73.464844 33.054688 C 75.074219 31.714844 77.128906 31.273438 79.277344 31.441406 C 83.34375 31.757812 87.050781 33.695312 90.382812 35.941406 C 104.136719 45.128906 110.625 65.652344 113.066406 81.355469 C 113.847656 87.089844 114.0625 92.9375 113.414062 98.695312 C 113.042969 101.457031 112.28125 104.140625 111.386719 106.769531 C 110.855469 108.289062 110.261719 109.816406 109.554688 111.269531 C 109.554688 111.269531 109.042969 112.371094 108.496094 113.230469 C 107.261719 115.277344 105.710938 117.101562 103.652344 118.460938 C 103.402344 118.632812 103.109375 118.816406 102.871094 118.976562 C 104.25 118.292969 105.570312 117.476562 106.742188 116.480469 C 107.5 115.84375 108.234375 115.066406 108.929688 114.1875 C 113.460938 124.550781 114.261719 139.308594 115.398438 149.929688 C 115.410156 150.03125 115.421875 150.132812 115.429688 150.238281 C 115.453125 150.457031 115.480469 150.683594 115.503906 150.898438 C 115.527344 151.136719 115.558594 151.367188 115.582031 151.59375 C 115.589844 151.667969 115.601562 151.742188 115.609375 151.808594 C 115.628906 151.980469 115.648438 152.152344 115.667969 152.324219 C 115.675781 152.367188 115.683594 152.410156 115.6875 152.449219 C 115.71875 152.703125 115.75 152.953125 115.78125 153.199219 C 115.816406 153.449219 115.851562 153.6875 115.882812 153.929688 C 115.898438 154.050781 115.914062 154.167969 115.929688 154.285156 C 115.945312 154.375 115.957031 154.457031 115.96875 154.542969 C 116.011719 154.8125 116.046875 155.066406 116.089844 155.324219 C 119.179688 174.285156 123.773438 193 126.835938 211.992188 C 125.75 195.371094 122.785156 178.960938 119.824219 162.589844 C 119.046875 157.953125 118.757812 153.152344 118.53125 148.316406 C 119.191406 146.5 119.785156 144.65625 120.300781 142.785156 C 121.859375 137.5625 122.558594 132.148438 123.390625 126.777344 C 125.5 113.300781 127.160156 99.738281 129.738281 86.339844 C 132.078125 74.714844 135.863281 63.101562 143.050781 53.527344 C 147.339844 47.777344 154.453125 42.726562 161.621094 41.621094 C 165.339844 41.058594 169.082031 41.945312 172.660156 42.914062 C 175.550781 43.757812 178.414062 44.730469 181.136719 46.035156 C 182.515625 46.730469 183.84375 47.574219 184.875 48.730469 C 186.929688 51.132812 188.007812 54.222656 188.710938 57.265625 C 190.285156 67.449219 188.667969 77.8125 187.03125 87.898438 C 186.386719 88.609375 185.757812 89.34375 185.152344 90.097656 C 179.472656 97.386719 176.085938 106.125 173.460938 114.90625 C 172.183594 119.199219 170.886719 123.476562 169.644531 127.773438 C 169.570312 127.070312 169.464844 126.367188 169.339844 125.675781 C 169.003906 123.800781 168.5 121.921875 167.535156 120.265625 C 165.578125 117.003906 162.351562 114.625 158.945312 113.03125 C 156.304688 112.015625 153.34375 111.785156 150.582031 112.414062 C 147.792969 113.097656 145.113281 114.40625 142.914062 116.257812 C 140.574219 118.308594 138.675781 120.945312 137.574219 123.871094 C 136.320312 127.449219 135.636719 131.207031 134.910156 134.917969 C 133.878906 140.355469 133.152344 145.851562 132.742188 151.363281 C 132.324219 150.515625 131.957031 149.648438 131.640625 148.769531 C 129.371094 142.542969 129.847656 135.785156 130.226562 129.289062 C 130.582031 123.859375 131.035156 118.433594 131.699219 113.027344 C 131.03125 116.242188 130.507812 119.527344 129.855469 122.765625 C 128.71875 128.242188 127.738281 133.804688 127.824219 139.417969 C 127.777344 145.425781 129.261719 151.054688 132.480469 155.976562 C 132.386719 158.25 132.34375 160.523438 132.367188 162.796875 C 132.429688 166.484375 132.582031 170.207031 132.757812 173.90625 C 132.769531 174.082031 132.777344 174.25 132.789062 174.425781 C 132.949219 174.480469 133.121094 174.539062 133.292969 174.59375 C 135.972656 175.484375 138.609375 176.503906 141.34375 177.214844 C 146.445312 178.445312 151.65625 179.195312 156.890625 179.53125 C 155.992188 183.757812 155.132812 187.992188 154.320312 192.246094 C 152.371094 201.792969 150.101562 211.296875 148.484375 220.910156 C 147.96875 224.449219 147.816406 228.03125 147.910156 231.601562 C 147.96875 234.371094 148.296875 237.164062 149.308594 239.765625 C 149.34375 239.867188 149.382812 239.96875 149.425781 240.0625 C 149.105469 241.664062 148.796875 243.277344 148.496094 244.902344 C 147.527344 250.746094 146.835938 256.632812 145.921875 262.484375 C 145.90625 262.578125 145.890625 262.671875 145.875 262.769531 C 145.941406 262.914062 146.007812 263.058594 146.078125 263.199219 C 150.664062 265.84375 155.375 268.351562 160.261719 270.390625 C 165.441406 272.566406 170.902344 273.988281 176.464844 274.726562 C 176.5 274.734375 176.535156 274.734375 176.570312 274.738281 C 176.777344 274.769531 176.988281 274.800781 177.195312 274.824219 C 177.28125 274.585938 177.371094 274.347656 177.457031 274.105469 C 178.695312 270.710938 179.976562 267.339844 181.085938 263.90625 C 181.265625 267.15625 181.738281 270.46875 183.121094 273.363281 C 182.363281 275.558594 181.625 277.761719 180.949219 279.984375 C 180.148438 282.660156 179.378906 285.347656 178.632812 288.039062 L 178.484375 288.578125 C 178.789062 288.75 179.085938 288.917969 179.390625 289.089844 C 179.707031 289.269531 180.019531 289.445312 180.335938 289.621094 C 183.089844 291.175781 185.773438 292.566406 188.71875 293.839844 C 191.789062 295.183594 194.976562 296.289062 198.234375 297.152344 C 201.488281 298.011719 204.816406 298.625 208.167969 298.980469 C 208.199219 298.984375 208.230469 298.988281 208.261719 298.992188 C 208.296875 298.992188 208.332031 298.996094 208.363281 299 C 208.722656 299.035156 209.089844 299.074219 209.449219 299.101562 C 209.5 298.996094 209.546875 298.886719 209.597656 298.777344 C 209.664062 298.644531 209.730469 298.5 209.792969 298.359375 C 209.859375 298.222656 209.925781 298.078125 209.988281 297.9375 C 212.667969 292.15625 215.089844 286.269531 217.425781 280.34375 C 218.355469 279.671875 219.246094 278.914062 220.101562 278.078125 C 223.238281 274.941406 225.933594 271.414062 228.371094 267.710938 C 235.5 256.824219 239.058594 244.148438 244.175781 232.285156 C 244.597656 231.28125 245.019531 230.273438 245.433594 229.265625 C 245.773438 229.234375 246.117188 229.1875 246.460938 229.132812 C 259.734375 227.066406 270.46875 216.945312 279.742188 207.863281 C 284.796875 202.667969 289.503906 197.148438 294.480469 191.875 C 297.117188 189.125 299.726562 186.425781 302.941406 184.320312 C 303.640625 183.855469 304.347656 183.402344 305.074219 182.972656 C 303.667969 183.566406 302.285156 184.289062 300.945312 185.039062 C 298.003906 186.675781 295.003906 188.265625 292.441406 190.488281 C 279.875 200.792969 270.585938 215.113281 255.984375 222.832031 C 253.207031 224.253906 249.976562 225.527344 246.714844 226.132812 C 246.597656 226.15625 246.476562 226.175781 246.359375 226.195312 C 246.246094 226.214844 246.132812 226.234375 246.023438 226.253906 C 246.003906 226.257812 245.992188 226.257812 245.976562 226.261719 C 245.878906 226.273438 245.78125 226.289062 245.683594 226.304688 C 245.671875 226.308594 245.652344 226.308594 245.640625 226.308594 C 245.53125 226.324219 245.425781 226.339844 245.320312 226.351562 C 245.304688 226.355469 245.289062 226.355469 245.277344 226.355469 C 245.167969 226.375 245.0625 226.386719 244.957031 226.394531 C 244.871094 226.40625 244.777344 226.414062 244.6875 226.425781 L 244.539062 226.4375 C 244.460938 226.445312 244.375 226.453125 244.300781 226.457031 C 244.238281 226.460938 244.175781 226.464844 244.117188 226.46875 L 244.085938 226.46875 C 243.035156 226.539062 241.992188 226.527344 240.972656 226.410156 C 241.070312 226.3125 241.167969 226.21875 241.265625 226.121094 C 246.089844 221.230469 251.007812 216.421875 255.601562 211.3125 C 259.308594 206.925781 263.230469 202.472656 265.347656 197.050781 C 266.683594 193.488281 266.957031 189.398438 265.613281 185.800781 C 264.753906 183.78125 263.164062 182.0625 261.265625 180.976562 C 252.261719 176.34375 243.84375 184.929688 237.84375 190.863281 C 239.632812 187.894531 241.464844 184.949219 243.128906 181.929688 C 247.660156 173.902344 252.5625 165.960938 259.183594 159.464844 C 265.082031 153.8125 271.578125 148.769531 278.515625 144.449219 C 278.691406 144.335938 278.867188 144.230469 279.039062 144.121094 C 281.226562 142.777344 283.453125 141.503906 285.722656 140.304688 C 290.792969 137.847656 297.945312 135.28125 303.5 137.199219 C 308.234375 139.046875 312.390625 142.511719 314.601562 147.132812 C 316.019531 150.035156 317.265625 153.058594 317.917969 156.238281 C 318.785156 160.929688 318.757812 165.746094 318.496094 170.496094 C 317.015625 186.695312 314.992188 202.847656 314.722656 219.125 C 314.476562 226.335938 314.605469 233.582031 313.523438 240.734375 C 312.679688 246.417969 311.535156 251.664062 309.953125 257.34375 C 301.125 285.828125 291.425781 314.394531 289.191406 344.34375 C 288.554688 351.800781 288.203125 359.292969 288.433594 366.777344 C 288.460938 368.050781 288.5 369.316406 288.566406 370.585938 C 288.636719 371.460938 288.628906 372.386719 288.871094 373.230469 C 288.875 373.230469 288.875 373.230469 288.875 373.226562 C 288.875 373.226562 288.875 373.226562 288.871094 373.226562 C 288.59375 371.59375 288.761719 369.917969 288.828125 368.261719 C 289.28125 361.789062 290.417969 355.382812 291.375 348.96875 C 293.347656 334.390625 295.546875 320.015625 299.25 305.722656 C 301.675781 296.070312 304.34375 286.46875 307.539062 277.042969 C 309.328125 271.878906 311.347656 266.792969 312.988281 261.585938 C 315.199219 254.445312 316.78125 247.113281 317.679688 239.691406 C 319.019531 227.484375 318.683594 215.167969 319.546875 202.925781 C 320.398438 190.816406 322.753906 178.835938 322.257812 166.632812 Z M 66.128906 45.207031 C 65.980469 48.285156 65.617188 51.363281 64.941406 54.363281 C 64.851562 54.785156 64.75 55.199219 64.648438 55.617188 C 64.648438 55.617188 64.648438 55.617188 64.640625 55.617188 L 64.636719 55.617188 C 64.648438 55.445312 64.65625 55.28125 64.667969 55.109375 C 64.8125 52.003906 64.863281 48.894531 64.882812 45.789062 C 64.886719 44.890625 64.882812 43.996094 64.882812 43.097656 L 64.882812 43.011719 C 64.875 41.40625 64.886719 39.796875 64.9375 38.1875 C 64.980469 36.648438 65.039062 35.101562 65.101562 33.5625 C 65.171875 31.886719 65.25 30.210938 65.296875 28.53125 C 65.304688 28.191406 65.316406 27.855469 65.316406 27.511719 C 65.320312 27.207031 65.335938 26.894531 65.316406 26.589844 L 65.308594 26.589844 C 65.308594 26.539062 65.296875 26.480469 65.308594 26.4375 C 65.308594 26.429688 65.328125 26.429688 65.328125 26.4375 C 65.398438 26.796875 65.410156 27.179688 65.449219 27.546875 C 65.480469 27.902344 65.507812 28.265625 65.539062 28.625 C 65.601562 29.398438 65.667969 30.175781 65.726562 30.957031 C 65.84375 32.515625 65.941406 34.074219 66.019531 35.640625 C 66.097656 37.210938 66.167969 38.785156 66.203125 40.355469 C 66.230469 41.972656 66.203125 43.589844 66.128906 45.207031 Z M 244.160156 213.433594 C 246.613281 210.273438 249.207031 207.210938 251.839844 204.1875 C 253.207031 202.621094 254.558594 201.046875 255.832031 199.410156 C 256.054688 199.101562 256.273438 198.796875 256.488281 198.492188 C 256.683594 198.203125 256.859375 197.90625 257.039062 197.605469 C 257.324219 197.085938 257.582031 196.5625 257.816406 196.023438 C 258.050781 195.40625 258.261719 194.792969 258.433594 194.15625 C 258.542969 193.671875 258.640625 193.179688 258.710938 192.683594 C 258.75 192.355469 258.769531 192.03125 258.785156 191.699219 C 258.777344 191.414062 258.765625 191.132812 258.742188 190.84375 C 258.703125 190.578125 258.65625 190.3125 258.605469 190.050781 C 258.605469 190.039062 258.601562 190.027344 258.597656 190.015625 C 258.53125 189.761719 258.457031 189.519531 258.359375 189.277344 C 258.292969 189.128906 258.226562 188.984375 258.144531 188.839844 C 258.078125 188.722656 257.957031 188.539062 257.867188 188.433594 C 257.769531 188.320312 257.671875 188.210938 257.5625 188.105469 C 257.476562 188.023438 257.386719 187.949219 257.292969 187.875 C 257.289062 187.875 257.289062 187.875 257.289062 187.875 C 257.203125 187.816406 257.117188 187.761719 257.027344 187.707031 C 256.984375 187.6875 256.941406 187.664062 256.902344 187.644531 C 256.867188 187.632812 256.828125 187.621094 256.792969 187.601562 C 256.761719 187.597656 256.734375 187.589844 256.699219 187.582031 C 256.675781 187.582031 256.65625 187.578125 256.628906 187.578125 C 256.617188 187.578125 256.597656 187.578125 256.585938 187.582031 C 256.578125 187.582031 256.566406 187.585938 256.558594 187.589844 C 256.558594 187.589844 256.558594 187.589844 256.554688 187.589844 C 256.550781 187.59375 256.546875 187.59375 256.542969 187.597656 C 256.542969 187.597656 256.542969 187.601562 256.542969 187.605469 L 256.542969 187.609375 C 256.546875 187.609375 256.546875 187.613281 256.546875 187.613281 C 256.550781 187.613281 256.550781 187.621094 256.550781 187.621094 C 256.558594 187.621094 256.558594 187.621094 256.566406 187.625 C 256.570312 187.625 256.570312 187.628906 256.566406 187.628906 C 256.53125 187.621094 256.527344 187.605469 256.550781 187.578125 C 256.632812 187.507812 256.839844 187.578125 256.921875 187.597656 C 257.171875 187.660156 257.410156 187.804688 257.628906 187.941406 C 258.359375 188.398438 258.878906 189.136719 259.21875 189.921875 C 259.414062 190.367188 259.59375 190.84375 259.691406 191.320312 C 259.789062 191.789062 259.855469 192.25 259.898438 192.726562 C 259.988281 193.730469 259.886719 194.746094 259.738281 195.742188 C 259.441406 197.777344 258.488281 199.695312 257.277344 201.339844 C 256.046875 203.015625 254.628906 204.535156 253.113281 205.964844 C 251.699219 207.304688 250.203125 208.570312 248.695312 209.804688 C 247.195312 211.03125 245.679688 212.246094 244.160156 213.441406 L 244.15625 213.441406 L 244.15625 213.433594 Z M 156.226562 123.003906 C 155.957031 122.894531 155.695312 122.792969 155.414062 122.710938 C 155.203125 122.65625 154.984375 122.609375 154.765625 122.582031 C 154.578125 122.5625 154.402344 122.558594 154.21875 122.550781 C 154.214844 122.550781 154.214844 122.542969 154.21875 122.542969 C 154.558594 122.523438 154.894531 122.496094 155.238281 122.527344 C 155.699219 122.570312 156.140625 122.664062 156.582031 122.792969 C 157.519531 123.074219 158.402344 123.527344 159.222656 124.039062 C 160.019531 124.542969 160.738281 125.179688 161.386719 125.855469 C 162.078125 126.570312 162.644531 127.421875 163.046875 128.332031 C 163.503906 129.355469 163.761719 130.457031 163.96875 131.558594 C 164.179688 132.664062 164.300781 133.785156 164.375 134.902344 C 164.375 134.90625 164.375 134.90625 164.371094 134.90625 C 163.980469 133.863281 163.578125 132.824219 163.171875 131.789062 C 162.769531 130.78125 162.375 129.765625 161.886719 128.796875 C 161.660156 128.382812 161.421875 127.984375 161.164062 127.589844 C 160.640625 126.855469 160.082031 126.152344 159.472656 125.480469 C 159.082031 125.070312 158.679688 124.679688 158.246094 124.3125 C 157.878906 124.019531 157.503906 123.75 157.113281 123.496094 C 157.109375 123.496094 157.109375 123.488281 157.109375 123.488281 C 157.109375 123.488281 157.109375 123.488281 157.101562 123.488281 C 156.820312 123.3125 156.53125 123.152344 156.226562 123.003906 Z M 182.070312 210.371094 C 181.886719 210.171875 181.695312 209.980469 181.507812 209.792969 C 181.246094 209.550781 180.976562 209.324219 180.695312 209.101562 C 180.519531 208.972656 180.347656 208.84375 180.160156 208.726562 C 179.941406 208.585938 179.714844 208.457031 179.492188 208.332031 C 179.234375 208.210938 178.980469 208.09375 178.710938 207.988281 C 178.449219 207.894531 178.183594 207.804688 177.914062 207.742188 C 177.417969 207.625 176.921875 207.566406 176.417969 207.515625 C 176.292969 207.503906 176.171875 207.492188 176.050781 207.472656 C 176.019531 207.464844 175.976562 207.457031 175.957031 207.433594 C 175.949219 207.425781 175.957031 207.417969 175.960938 207.421875 L 175.960938 207.417969 L 175.964844 207.417969 C 175.964844 207.421875 175.960938 207.421875 175.960938 207.421875 C 175.960938 207.421875 175.960938 207.421875 175.960938 207.425781 L 175.960938 207.429688 C 175.964844 207.429688 175.964844 207.4375 175.96875 207.4375 C 175.976562 207.441406 175.980469 207.445312 175.992188 207.449219 C 176.011719 207.449219 176.035156 207.453125 176.050781 207.457031 C 176.304688 207.472656 176.558594 207.472656 176.816406 207.464844 L 177.222656 207.464844 C 177.582031 207.464844 178.167969 207.511719 178.519531 207.582031 C 178.703125 207.621094 178.886719 207.660156 179.066406 207.703125 C 179.679688 207.855469 180.277344 208.070312 180.839844 208.355469 C 182.386719 209.128906 183.707031 210.285156 184.738281 211.671875 C 185.007812 212.027344 185.253906 212.386719 185.492188 212.761719 C 185.730469 213.144531 185.941406 213.539062 186.148438 213.9375 C 186.578125 214.769531 186.859375 215.671875 187.078125 216.578125 C 187.5 218.363281 187.351562 220.230469 187.113281 222.027344 C 187.023438 222.734375 186.890625 223.429688 186.753906 224.125 C 186.753906 224.132812 186.75 224.140625 186.75 224.144531 C 186.75 224.152344 186.742188 224.160156 186.742188 224.167969 C 186.394531 225.875 185.925781 227.558594 185.417969 229.222656 C 184.925781 230.859375 184.375 232.484375 183.78125 234.085938 C 183.53125 234.769531 183.265625 235.445312 182.988281 236.117188 C 182.988281 236.121094 182.988281 236.121094 182.984375 236.121094 L 182.984375 236.117188 C 183.679688 232.636719 184.230469 229.125 184.730469 225.613281 C 184.90625 224.398438 185.046875 223.179688 185.164062 221.953125 C 185.207031 221.410156 185.25 220.859375 185.269531 220.308594 C 185.289062 219.757812 185.292969 219.203125 185.292969 218.652344 C 185.28125 218.390625 185.273438 218.128906 185.25 217.867188 C 185.226562 217.585938 185.195312 217.304688 185.15625 217.027344 C 185.074219 216.53125 184.96875 216.042969 184.84375 215.554688 C 184.753906 215.246094 184.65625 214.949219 184.554688 214.640625 C 184.445312 214.324219 184.3125 214.019531 184.179688 213.710938 C 183.953125 213.222656 183.703125 212.746094 183.441406 212.269531 C 183.3125 212.058594 183.191406 211.847656 183.046875 211.640625 C 182.886719 211.402344 182.71875 211.171875 182.546875 210.945312 C 182.394531 210.746094 182.234375 210.554688 182.070312 210.371094 Z M 192.28125 247.160156 C 190.320312 251.945312 188.636719 256.835938 187.125 261.777344 C 186.148438 264.800781 185.074219 267.792969 184.019531 270.792969 C 183.242188 267.929688 182.929688 264.953125 182.71875 261.996094 C 182.644531 260.988281 182.601562 259.980469 182.597656 258.976562 C 183.277344 256.636719 183.914062 254.28125 184.554688 251.925781 C 184.558594 251.921875 184.558594 251.921875 184.5625 251.917969 C 187.949219 249.527344 190.992188 246.464844 193.644531 243.074219 L 193.644531 243.070312 C 193.664062 243.042969 193.683594 243.019531 193.703125 242.992188 C 193.777344 242.902344 193.847656 242.8125 193.917969 242.71875 C 194.074219 242.519531 194.230469 242.3125 194.382812 242.109375 C 193.644531 243.777344 192.976562 245.480469 192.28125 247.160156 Z M 199.410156 225.652344 C 199.21875 225.914062 199.070312 226.207031 199.011719 226.523438 C 198.945312 226.863281 198.800781 227.144531 198.65625 227.464844 C 198.539062 227.714844 198.421875 227.964844 198.300781 228.21875 C 198.242188 228.34375 198.183594 228.46875 198.125 228.59375 C 198.0625 228.722656 198.003906 228.851562 197.941406 228.976562 C 197.867188 229.125 197.796875 229.277344 197.722656 229.425781 C 197.648438 229.578125 197.574219 229.730469 197.492188 229.882812 C 197.371094 230.128906 197.253906 230.363281 197.128906 230.605469 C 197.0625 230.734375 197 230.855469 196.933594 230.988281 C 196.761719 231.308594 196.589844 231.632812 196.421875 231.953125 C 196.367188 232.050781 196.316406 232.144531 196.261719 232.246094 C 196.125 232.496094 195.984375 232.75 195.84375 233.003906 C 193.980469 236.332031 191.855469 239.511719 189.40625 242.476562 C 188.417969 243.65625 187.363281 244.832031 186.242188 245.953125 C 186.238281 245.949219 186.242188 245.953125 186.238281 245.953125 C 187.960938 240.027344 190.289062 234.253906 191.316406 228.152344 C 191.921875 224.023438 192.21875 219.8125 191.726562 215.660156 C 191.402344 213.027344 190.882812 210.46875 189.8125 208.019531 C 188.953125 206.117188 188.054688 204.1875 186.667969 202.613281 C 185.277344 201.0625 183.535156 199.785156 181.628906 198.941406 C 179.636719 198.160156 177.484375 197.871094 175.355469 197.871094 L 175.304688 197.871094 C 168.851562 197.878906 163.539062 202.445312 160.09375 207.550781 C 156.851562 212.394531 155.003906 218.28125 153.28125 223.851562 C 152.222656 227.5 151.328125 231.125 150.523438 234.789062 C 150.101562 231.945312 150.152344 229.054688 150.242188 226.078125 C 150.722656 219.808594 152.320312 213.730469 153.523438 207.570312 C 155.5 198.222656 157.230469 188.988281 159.207031 179.652344 C 159.300781 179.214844 159.394531 178.773438 159.488281 178.332031 C 159.691406 177.390625 159.898438 176.445312 160.105469 175.5 C 160.875 172.15625 161.644531 168.8125 162.425781 165.476562 C 162.476562 165.273438 162.523438 165.078125 162.566406 164.882812 C 162.589844 164.785156 162.613281 164.6875 162.636719 164.585938 C 162.660156 164.488281 162.683594 164.386719 162.707031 164.292969 C 163.484375 160.992188 164.273438 157.703125 165.085938 154.414062 C 165.359375 153.320312 165.628906 152.226562 165.90625 151.132812 C 166 150.765625 166.089844 150.402344 166.183594 150.035156 C 166.273438 149.671875 166.371094 149.304688 166.460938 148.941406 C 166.644531 148.230469 166.828125 147.523438 167.011719 146.8125 C 167.109375 146.425781 167.210938 146.042969 167.308594 145.660156 C 167.40625 145.292969 167.5 144.925781 167.597656 144.5625 C 167.679688 144.242188 167.765625 143.921875 167.847656 143.601562 C 167.878906 143.5 167.90625 143.390625 167.933594 143.285156 C 168.011719 142.980469 168.09375 142.679688 168.175781 142.378906 C 168.503906 141.125 168.847656 139.878906 169.1875 138.628906 C 169.308594 138.199219 169.425781 137.773438 169.542969 137.34375 C 169.546875 137.324219 169.550781 137.308594 169.554688 137.285156 C 170.058594 135.488281 170.5625 133.695312 171.085938 131.898438 C 174.507812 121.125 177.097656 109.976562 182.128906 99.792969 C 183.304688 97.496094 184.65625 95.167969 186.203125 92.980469 C 186.308594 92.832031 186.414062 92.683594 186.519531 92.535156 C 186.628906 92.386719 186.734375 92.238281 186.84375 92.09375 C 186.953125 91.949219 187.058594 91.804688 187.171875 91.660156 C 187.1875 91.640625 187.203125 91.617188 187.226562 91.589844 C 187.3125 91.476562 187.402344 91.363281 187.488281 91.253906 C 187.644531 91.050781 187.8125 90.84375 187.976562 90.644531 C 188.046875 90.554688 188.121094 90.464844 188.195312 90.375 C 188.25 90.316406 188.300781 90.253906 188.355469 90.1875 C 188.398438 90.140625 188.4375 90.089844 188.484375 90.039062 C 188.546875 89.96875 188.605469 89.894531 188.671875 89.824219 C 188.769531 89.707031 188.875 89.59375 188.976562 89.480469 C 192.324219 85.734375 196.429688 82.816406 201.480469 81.824219 C 205.511719 80.988281 209.621094 81.902344 213.664062 82.597656 C 219.011719 83.695312 224.414062 86.03125 228.117188 90.152344 C 229.441406 91.683594 230.328125 93.511719 231 95.40625 C 233.265625 101.917969 232.441406 108.972656 231.1875 115.609375 C 230.796875 117.4375 230.34375 119.25 229.84375 121.042969 C 229.785156 121.242188 229.734375 121.441406 229.675781 121.640625 C 229.617188 121.839844 229.5625 122.039062 229.503906 122.238281 C 229.433594 122.472656 229.367188 122.699219 229.296875 122.933594 C 229.257812 123.070312 229.21875 123.210938 229.175781 123.347656 C 229.105469 123.574219 229.039062 123.796875 228.96875 124.023438 C 228.90625 124.222656 228.84375 124.417969 228.78125 124.617188 C 228.695312 124.898438 228.605469 125.175781 228.519531 125.449219 C 228.472656 125.59375 228.425781 125.742188 228.378906 125.882812 C 228.132812 126.644531 227.878906 127.398438 227.621094 128.15625 C 227.507812 128.488281 227.394531 128.824219 227.277344 129.152344 C 227.214844 129.332031 227.152344 129.511719 227.089844 129.691406 C 227.089844 129.691406 227.082031 129.714844 227.070312 129.761719 C 226.5625 131.398438 216.96875 162.480469 212.40625 182.472656 C 212.402344 182.476562 212.402344 182.484375 212.402344 182.488281 C 211.59375 187.285156 210.90625 189.75 210.847656 189.976562 C 210.839844 189.980469 210.839844 189.988281 210.839844 189.996094 C 209.828125 193.695312 208.726562 197.378906 207.628906 201.058594 C 206.921875 203.417969 206.222656 205.777344 205.535156 208.148438 C 204.308594 212.449219 202.960938 216.753906 201.371094 220.960938 C 201.332031 221.058594 201.292969 221.164062 201.253906 221.265625 C 201.222656 221.355469 201.183594 221.453125 201.152344 221.542969 C 201.132812 221.574219 201.121094 221.613281 201.109375 221.652344 C 201.046875 221.8125 200.984375 221.96875 200.921875 222.125 C 200.890625 222.203125 200.859375 222.289062 200.824219 222.363281 C 200.757812 222.539062 200.691406 222.707031 200.621094 222.878906 C 200.621094 222.882812 200.617188 222.886719 200.617188 222.898438 C 200.542969 223.074219 200.472656 223.253906 200.398438 223.433594 C 200.203125 223.921875 200 224.402344 199.792969 224.882812 C 199.683594 225.140625 199.597656 225.394531 199.410156 225.652344 Z M 217.808594 260.789062 C 216.953125 262.722656 216.03125 264.628906 215.128906 266.535156 C 214.671875 267.496094 214.210938 268.449219 213.746094 269.410156 L 213.742188 269.410156 C 213.742188 269.410156 213.738281 269.410156 213.738281 269.402344 C 214.226562 267.359375 214.753906 265.328125 215.289062 263.296875 C 215.832031 261.226562 216.421875 259.171875 216.96875 257.101562 C 217.144531 256.433594 217.296875 255.757812 217.457031 255.082031 C 217.890625 253.058594 218.28125 251.023438 218.550781 248.964844 C 218.625 248.171875 218.671875 247.382812 218.683594 246.582031 C 218.675781 246.183594 218.660156 245.789062 218.640625 245.394531 C 218.621094 244.988281 218.566406 244.582031 218.515625 244.171875 C 218.476562 243.90625 218.4375 243.640625 218.378906 243.378906 C 218.320312 243.074219 218.246094 242.78125 218.167969 242.480469 C 218.058594 242.140625 217.949219 241.808594 217.828125 241.472656 C 217.695312 241.179688 217.558594 240.894531 217.410156 240.609375 C 217.257812 240.351562 217.101562 240.109375 216.929688 239.859375 C 216.765625 239.660156 216.601562 239.46875 216.429688 239.28125 C 216.269531 239.136719 216.113281 239 215.945312 238.867188 C 215.679688 238.675781 215.410156 238.492188 215.125 238.328125 C 214.953125 238.238281 214.78125 238.148438 214.605469 238.0625 C 214.527344 238.027344 214.441406 237.988281 214.359375 237.945312 C 214.34375 237.9375 214.34375 237.9375 214.332031 237.925781 C 214.335938 237.921875 214.335938 237.917969 214.335938 237.917969 C 214.335938 237.917969 214.34375 237.917969 214.34375 237.925781 C 214.34375 237.925781 214.335938 237.925781 214.335938 237.929688 C 214.335938 237.929688 214.34375 237.929688 214.34375 237.933594 C 214.351562 237.9375 214.359375 237.941406 214.363281 237.941406 C 214.976562 238.160156 215.589844 238.355469 216.167969 238.667969 C 216.363281 238.773438 216.546875 238.898438 216.722656 239.03125 C 217.074219 239.300781 217.40625 239.582031 217.699219 239.914062 C 218.023438 240.28125 218.308594 240.664062 218.585938 241.0625 C 218.851562 241.449219 219.066406 241.886719 219.261719 242.308594 C 219.476562 242.769531 219.660156 243.238281 219.824219 243.722656 C 219.96875 244.15625 220.085938 244.597656 220.199219 245.039062 C 220.296875 245.410156 220.425781 246.03125 220.480469 246.414062 C 220.484375 246.449219 220.488281 246.476562 220.492188 246.503906 C 220.492188 246.511719 220.492188 246.519531 220.5 246.527344 C 220.578125 247.144531 220.644531 247.753906 220.679688 248.375 C 220.726562 249.082031 220.679688 249.796875 220.636719 250.511719 C 220.566406 251.609375 220.429688 252.699219 220.207031 253.777344 C 219.921875 255.152344 219.550781 256.5 219.050781 257.808594 C 218.671875 258.816406 218.25 259.804688 217.808594 260.789062 Z M 269.445312 146.285156 C 264.09375 150.472656 258.832031 154.847656 254.339844 159.964844 C 248.171875 166.84375 243.652344 174.917969 239.140625 182.921875 C 235.9375 188.570312 232.238281 193.984375 229.742188 199.996094 C 229.125 200.769531 228.515625 201.550781 227.90625 202.335938 C 224.769531 206.417969 221.714844 210.566406 219.03125 214.964844 C 217.765625 216.957031 216.625 219.023438 215.542969 221.125 C 215.425781 221.351562 215.316406 221.574219 215.199219 221.804688 C 217.550781 223.925781 219.945312 226.015625 222.605469 227.738281 C 225.398438 229.464844 228.421875 230.875 231.613281 231.671875 C 232.421875 231.859375 233.230469 232.035156 234.042969 232.195312 C 234.296875 232.246094 234.554688 232.292969 234.8125 232.339844 C 236.09375 231.171875 237.351562 229.96875 238.589844 228.75 C 239.839844 229.089844 241.132812 229.289062 242.4375 229.359375 C 241.257812 231.773438 240.144531 234.230469 239.089844 236.746094 C 236.640625 242.652344 234.734375 248.777344 232.160156 254.640625 C 229.09375 261.976562 225.023438 269.011719 219.5625 274.828125 C 220.105469 273.414062 220.644531 272 221.191406 270.589844 C 223.3125 264.949219 225.378906 259.253906 226.621094 253.339844 C 227.292969 250.179688 227.703125 246.941406 227.5 243.707031 C 227.09375 235.925781 221.410156 229.710938 213.875 228.078125 C 213.039062 227.902344 212.195312 227.8125 211.34375 227.8125 C 208.984375 227.8125 206.621094 228.46875 204.542969 229.570312 C 202.734375 230.535156 201.183594 231.886719 199.8125 233.402344 C 200.042969 232.960938 200.265625 232.523438 200.480469 232.082031 C 206.089844 220.621094 208.820312 208.0625 212.253906 195.847656 C 214.457031 187.652344 216.742188 179.648438 218.359375 171.335938 C 218.949219 168.300781 219.707031 165.296875 220.601562 162.335938 C 222.933594 154.601562 225.207031 146.851562 227.988281 139.265625 C 230.152344 133.714844 232.230469 128.066406 233.699219 122.285156 C 239.199219 118.386719 246.453125 117.398438 252.984375 118.722656 C 255.65625 119.292969 258.214844 120.28125 260.648438 121.503906 C 264.960938 123.609375 268.5625 126.328125 271.46875 130.179688 C 273.953125 133.4375 275.671875 137.1875 277.171875 140.992188 C 274.527344 142.648438 271.949219 144.433594 269.445312 146.285156 Z M 269.445312 146.285156 " fill-opacity="1" fill-rule="nonzero"/></g><path fill="#000000" d="M 226.609375 250.679688 C 226.609375 250.679688 226.609375 250.683594 226.609375 250.683594 C 226.613281 250.707031 226.617188 250.734375 226.621094 250.761719 C 226.621094 250.769531 226.621094 250.777344 226.621094 250.789062 C 226.621094 250.789062 226.621094 250.792969 226.621094 250.796875 C 226.621094 250.757812 226.613281 250.71875 226.609375 250.679688 Z M 226.609375 250.679688 " fill-opacity="1" fill-rule="nonzero"/><path fill="#000000" d="M 264.582031 198.34375 C 264.578125 198.363281 264.570312 198.378906 264.566406 198.398438 C 264.570312 198.378906 264.574219 198.363281 264.582031 198.34375 Z M 264.582031 198.34375 " fill-opacity="1" fill-rule="nonzero"/></svg>