<svg xmlns="http://www.w3.org/2000/svg" xmlns:xlink="http://www.w3.org/1999/xlink" width="500" zoomAndPan="magnify" viewBox="0 0 375 374.999991" height="500" preserveAspectRatio="xMidYMid meet" version="1.0"><defs><g/></defs><g fill="#808080" fill-opacity="1"><g transform="translate(74.412208, 215.178492)"><g><path d="M 100.421875 -83.984375 C 102.597656 -83.253906 104.015625 -81.519531 104.671875 -78.78125 C 105.335938 -76.039062 105.375 -72.640625 104.78125 -68.578125 C 104.1875 -64.515625 103.144531 -60.070312 101.65625 -55.25 C 100.164062 -50.4375 98.363281 -45.535156 96.25 -40.546875 C 94.144531 -35.566406 91.867188 -30.796875 89.421875 -26.234375 C 86.984375 -21.679688 84.578125 -17.65625 82.203125 -14.15625 C 82.921875 -8.945312 83.859375 -4.226562 85.015625 0 C 86.171875 4.226562 87.523438 7.660156 89.078125 10.296875 C 90.628906 12.941406 92.296875 14.5625 94.078125 15.15625 C 94.410156 14.289062 94.722656 13.972656 95.015625 14.203125 C 95.316406 14.441406 95.429688 14.804688 95.359375 15.296875 C 95.296875 15.796875 94.800781 16.007812 93.875 15.9375 C 91.570312 15.34375 89.507812 13.84375 87.6875 11.4375 C 85.875 9.03125 84.304688 5.960938 82.984375 2.234375 C 81.660156 -1.492188 80.539062 -5.640625 79.625 -10.203125 C 75.925781 -4.648438 72.554688 -0.175781 69.515625 3.21875 C 66.484375 6.613281 63.726562 9.21875 61.25 11.03125 C 58.769531 12.851562 56.539062 14.078125 54.5625 14.703125 C 52.582031 15.328125 50.769531 15.609375 49.125 15.546875 C 46.019531 15.484375 43.554688 14.046875 41.734375 11.234375 C 39.921875 8.429688 38.679688 4.65625 38.015625 -0.09375 C 37.359375 -4.851562 37.210938 -10.269531 37.578125 -16.34375 C 37.941406 -22.414062 38.75 -28.816406 40 -35.546875 C 41.257812 -42.285156 42.894531 -49.003906 44.90625 -55.703125 C 46.925781 -62.398438 49.253906 -68.722656 51.890625 -74.671875 C 42.648438 -77.503906 34.332031 -79.300781 26.9375 -80.0625 C 19.539062 -80.820312 13.5625 -80.425781 9 -78.875 C 4.445312 -77.320312 1.742188 -74.5 0.890625 -70.40625 C 0.953125 -70.207031 0.882812 -70.09375 0.6875 -70.0625 C 0.488281 -70.03125 0.359375 -70.144531 0.296875 -70.40625 C 0.234375 -70.675781 0.363281 -71.304688 0.6875 -72.296875 C 1.019531 -73.285156 1.726562 -74.390625 2.8125 -75.609375 C 3.90625 -76.828125 5.59375 -77.945312 7.875 -78.96875 C 10.15625 -80 13.207031 -80.660156 17.03125 -80.953125 C 20.863281 -81.253906 25.648438 -80.988281 31.390625 -80.15625 C 37.140625 -79.332031 44.039062 -77.671875 52.09375 -75.171875 C 53.738281 -78.597656 55.367188 -81.132812 56.984375 -82.78125 C 58.609375 -84.4375 60.113281 -85.476562 61.5 -85.90625 C 62.882812 -86.332031 64.035156 -86.378906 64.953125 -86.046875 C 65.878906 -85.722656 66.476562 -85.296875 66.75 -84.765625 C 67.144531 -83.972656 67.222656 -82.867188 66.984375 -81.453125 C 66.753906 -80.035156 66.175781 -78.648438 65.25 -77.296875 C 64.332031 -75.941406 62.984375 -74.914062 61.203125 -74.21875 C 59.421875 -73.53125 57.144531 -73.484375 54.375 -74.078125 C 50.9375 -64.765625 48.175781 -55.785156 46.09375 -47.140625 C 44.019531 -38.492188 42.550781 -30.488281 41.6875 -23.125 C 40.832031 -15.757812 40.550781 -9.300781 40.84375 -3.75 C 41.144531 1.789062 41.972656 6.175781 43.328125 9.40625 C 44.679688 12.644531 46.546875 14.425781 48.921875 14.75 C 49.910156 14.882812 51.328125 14.703125 53.171875 14.203125 C 55.023438 13.710938 57.269531 12.59375 59.90625 10.84375 C 62.550781 9.09375 65.503906 6.4375 68.765625 2.875 C 72.035156 -0.6875 75.585938 -5.472656 79.421875 -11.484375 C 78.566406 -16.441406 78.15625 -21.757812 78.1875 -27.4375 C 78.21875 -33.113281 78.628906 -38.804688 79.421875 -44.515625 C 80.210938 -50.222656 81.300781 -55.601562 82.6875 -60.65625 C 84.070312 -65.707031 85.707031 -70.128906 87.59375 -73.921875 C 89.476562 -77.722656 91.507812 -80.546875 93.6875 -82.390625 C 95.863281 -84.242188 98.109375 -84.773438 100.421875 -83.984375 Z M 100.21875 -83.484375 C 98.632812 -84.140625 97 -83.59375 95.3125 -81.84375 C 93.632812 -80.09375 92 -77.453125 90.40625 -73.921875 C 88.820312 -70.390625 87.382812 -66.265625 86.09375 -61.546875 C 84.8125 -56.828125 83.757812 -51.804688 82.9375 -46.484375 C 82.113281 -41.171875 81.601562 -35.820312 81.40625 -30.4375 C 81.207031 -25.0625 81.40625 -20 82 -15.25 C 84.175781 -18.289062 86.398438 -21.9375 88.671875 -26.1875 C 90.953125 -30.445312 93.132812 -34.988281 95.21875 -39.8125 C 97.300781 -44.632812 99.097656 -49.4375 100.609375 -54.21875 C 102.128906 -59.007812 103.21875 -63.445312 103.875 -67.53125 C 104.539062 -71.625 104.625 -75.09375 104.125 -77.9375 C 103.632812 -80.78125 102.332031 -82.628906 100.21875 -83.484375 Z M 54.5625 -74.578125 C 57.207031 -74.046875 59.382812 -74.140625 61.09375 -74.859375 C 62.8125 -75.585938 64.113281 -76.613281 65 -77.9375 C 65.894531 -79.257812 66.410156 -80.5625 66.546875 -81.84375 C 66.679688 -83.132812 66.515625 -84.007812 66.046875 -84.46875 C 65.585938 -85 64.726562 -85.148438 63.46875 -84.921875 C 62.21875 -84.691406 60.800781 -83.800781 59.21875 -82.25 C 57.632812 -80.695312 56.082031 -78.140625 54.5625 -74.578125 Z M 54.5625 -74.578125 "/></g></g></g><g fill="#808080" fill-opacity="1"><g transform="translate(178.196115, 215.178492)"><g><path d="M 13.265625 -11.390625 C 10.828125 -11.191406 9.609375 -13.703125 9.609375 -18.921875 C 9.609375 -20.628906 9.753906 -22.585938 10.046875 -24.796875 C 10.347656 -27.015625 10.660156 -29.128906 10.984375 -31.140625 C 11.316406 -33.160156 11.53125 -34.84375 11.625 -36.1875 C 11.726562 -37.539062 11.582031 -38.253906 11.1875 -38.328125 C 10.863281 -38.390625 10.15625 -37.773438 9.0625 -36.484375 C 7.96875 -35.203125 6.726562 -33.238281 5.34375 -30.59375 C 3.957031 -27.957031 2.671875 -24.660156 1.484375 -20.703125 C 1.285156 -19.835938 0.773438 -19.304688 -0.046875 -19.109375 C -0.867188 -18.910156 -1.25 -19.34375 -1.1875 -20.40625 C -1.050781 -21.851562 -0.914062 -23.117188 -0.78125 -24.203125 C -0.65625 -25.296875 -0.492188 -26.4375 -0.296875 -27.625 C -0.0976562 -28.8125 0.128906 -30.265625 0.390625 -31.984375 C 0.585938 -33.242188 0.96875 -34.035156 1.53125 -34.359375 C 2.09375 -34.691406 2.601562 -34.675781 3.0625 -34.3125 C 3.53125 -33.945312 3.664062 -33.335938 3.46875 -32.484375 C 3.132812 -30.503906 2.914062 -29.164062 2.8125 -28.46875 C 2.71875 -27.78125 2.632812 -27.316406 2.5625 -27.078125 C 2.5 -26.847656 2.4375 -26.503906 2.375 -26.046875 C 2.3125 -25.585938 2.113281 -24.597656 1.78125 -23.078125 C 1.914062 -23.796875 2.34375 -25.015625 3.0625 -26.734375 C 3.789062 -28.453125 4.648438 -30.25 5.640625 -32.125 C 6.628906 -34.007812 7.664062 -35.628906 8.75 -36.984375 C 9.84375 -38.335938 10.789062 -38.945312 11.59375 -38.8125 C 12.78125 -38.75 13.535156 -38.070312 13.859375 -36.78125 C 14.191406 -35.5 14.273438 -33.867188 14.109375 -31.890625 C 13.941406 -29.910156 13.644531 -27.796875 13.21875 -25.546875 C 12.789062 -23.304688 12.425781 -21.191406 12.125 -19.203125 C 11.832031 -17.222656 11.71875 -15.554688 11.78125 -14.203125 C 11.851562 -12.859375 12.285156 -12.117188 13.078125 -11.984375 C 13.597656 -11.921875 14.335938 -12.429688 15.296875 -13.515625 C 16.253906 -14.609375 17.3125 -16.0625 18.46875 -17.875 C 19.625 -19.6875 20.78125 -21.679688 21.9375 -23.859375 C 23.09375 -26.046875 24.132812 -28.160156 25.0625 -30.203125 C 25.1875 -30.460938 25.332031 -30.578125 25.5 -30.546875 C 25.664062 -30.515625 25.679688 -30.367188 25.546875 -30.109375 C 24.691406 -28.054688 23.703125 -25.957031 22.578125 -23.8125 C 21.453125 -21.664062 20.328125 -19.664062 19.203125 -17.8125 C 18.085938 -15.96875 17.015625 -14.453125 15.984375 -13.265625 C 14.960938 -12.078125 14.054688 -11.453125 13.265625 -11.390625 Z M 13.265625 -11.390625 "/></g></g></g><g fill="#808080" fill-opacity="1"><g transform="translate(203.250817, 215.178492)"><g><path d="M 20.796875 -38.21875 C 20.660156 -36.570312 20.476562 -34.523438 20.25 -32.078125 C 20.019531 -29.640625 19.789062 -27.050781 19.5625 -24.3125 C 19.332031 -21.570312 19.050781 -18.878906 18.71875 -16.234375 C 20.101562 -17.234375 21.703125 -18.40625 23.515625 -19.75 C 25.335938 -21.101562 27.15625 -22.671875 28.96875 -24.453125 C 30.78125 -26.242188 32.347656 -28.226562 33.671875 -30.40625 C 33.804688 -30.664062 33.9375 -30.742188 34.0625 -30.640625 C 34.195312 -30.546875 34.195312 -30.367188 34.0625 -30.109375 C 32.8125 -27.859375 31.242188 -25.804688 29.359375 -23.953125 C 27.484375 -22.109375 25.585938 -20.492188 23.671875 -19.109375 C 21.753906 -17.722656 20.070312 -16.503906 18.625 -15.453125 C 18.09375 -10.765625 17.410156 -5.859375 16.578125 -0.734375 C 15.753906 4.378906 14.75 9.410156 13.5625 14.359375 C 12.375 19.304688 11.003906 23.941406 9.453125 28.265625 C 7.898438 32.597656 6.164062 36.363281 4.25 39.5625 C 2.34375 42.757812 0.234375 45.132812 -2.078125 46.6875 C -4.390625 48.238281 -6.898438 48.753906 -9.609375 48.234375 C -11.191406 47.898438 -12.460938 46.722656 -13.421875 44.703125 C -14.378906 42.691406 -14.921875 40.050781 -15.046875 36.78125 C -15.179688 33.519531 -14.753906 29.828125 -13.765625 25.703125 C -12.773438 21.578125 -11.09375 17.25 -8.71875 12.71875 C -6.34375 8.195312 -3.175781 3.660156 0.78125 -0.890625 C 4.75 -5.441406 9.671875 -9.800781 15.546875 -13.96875 L 17.53125 -34.359375 C 15.476562 -28.085938 13.410156 -23.484375 11.328125 -20.546875 C 9.253906 -17.609375 7.226562 -16.140625 5.25 -16.140625 C 3.394531 -16.273438 2.019531 -17.148438 1.125 -18.765625 C 0.238281 -20.378906 -0.265625 -22.257812 -0.390625 -24.40625 C -0.523438 -26.550781 -0.394531 -28.484375 0 -30.203125 C 0.925781 -33.898438 2.425781 -36.488281 4.5 -37.96875 C 6.582031 -39.457031 8.445312 -40.203125 10.09375 -40.203125 C 11.613281 -40.140625 12.71875 -39.296875 13.40625 -37.671875 C 14.101562 -36.054688 13.796875 -34.09375 12.484375 -31.78125 C 12.410156 -31.65625 12.289062 -31.554688 12.125 -31.484375 C 11.96875 -31.421875 11.890625 -31.519531 11.890625 -31.78125 C 13.203125 -34.09375 13.507812 -35.992188 12.8125 -37.484375 C 12.125 -38.972656 11.15625 -39.679688 9.90625 -39.609375 C 8.71875 -39.347656 7.578125 -38.425781 6.484375 -36.84375 C 5.398438 -35.257812 4.457031 -33.359375 3.65625 -31.140625 C 2.863281 -28.929688 2.351562 -26.738281 2.125 -24.5625 C 1.894531 -22.382812 2.023438 -20.566406 2.515625 -19.109375 C 3.015625 -17.660156 3.992188 -16.898438 5.453125 -16.828125 C 7.492188 -16.765625 9.585938 -18.644531 11.734375 -22.46875 C 13.878906 -26.300781 15.941406 -31.421875 17.921875 -37.828125 C 18.253906 -38.953125 18.847656 -39.546875 19.703125 -39.609375 C 20.566406 -39.679688 20.929688 -39.21875 20.796875 -38.21875 Z M -9.015625 47.640625 C -6.046875 47.566406 -3.390625 46.289062 -1.046875 43.8125 C 1.296875 41.34375 3.375 37.992188 5.1875 33.765625 C 7.007812 29.546875 8.582031 24.8125 9.90625 19.5625 C 11.226562 14.3125 12.332031 8.863281 13.21875 3.21875 C 14.113281 -2.425781 14.859375 -7.921875 15.453125 -13.265625 C 9.304688 -8.648438 4.253906 -3.953125 0.296875 0.828125 C -3.660156 5.617188 -6.742188 10.304688 -8.953125 14.890625 C -11.171875 19.484375 -12.660156 23.773438 -13.421875 27.765625 C -14.179688 31.765625 -14.425781 35.265625 -14.15625 38.265625 C -13.894531 41.273438 -13.285156 43.601562 -12.328125 45.25 C -11.367188 46.90625 -10.265625 47.703125 -9.015625 47.640625 Z M -9.015625 47.640625 "/></g></g></g><g fill="#808080" fill-opacity="1"><g transform="translate(236.822134, 215.178492)"><g><path d="M 14.359375 -34.171875 C 13.367188 -34.035156 12.257812 -33.191406 11.03125 -31.640625 C 9.8125 -30.085938 8.554688 -28.140625 7.265625 -25.796875 C 5.984375 -23.453125 4.765625 -21.007812 3.609375 -18.46875 C 2.453125 -15.925781 1.445312 -13.566406 0.59375 -11.390625 L 0.296875 -10.09375 C 0.0976562 -9.375 -0.28125 -8.847656 -0.84375 -8.515625 C -1.40625 -8.179688 -1.914062 -8.179688 -2.375 -8.515625 C -2.832031 -8.847656 -3 -9.609375 -2.875 -10.796875 C -1.488281 -24.066406 0.320312 -35.816406 2.5625 -46.046875 C 4.8125 -56.285156 7.335938 -64.851562 10.140625 -71.75 C 12.953125 -78.644531 15.859375 -83.707031 18.859375 -86.9375 C 21.867188 -90.175781 24.757812 -91.4375 27.53125 -90.71875 C 29.25 -90.25 30.222656 -89.039062 30.453125 -87.09375 C 30.679688 -85.144531 30.382812 -82.6875 29.5625 -79.71875 C 28.738281 -76.75 27.53125 -73.5 25.9375 -69.96875 C 24.351562 -66.4375 22.570312 -62.820312 20.59375 -59.125 C 18.613281 -55.425781 16.597656 -51.910156 14.546875 -48.578125 C 12.503906 -45.242188 10.59375 -42.269531 8.8125 -39.65625 C 7.03125 -37.050781 5.578125 -35.085938 4.453125 -33.765625 C 3.660156 -29.472656 3.03125 -26.039062 2.5625 -23.46875 C 2.101562 -20.894531 1.742188 -18.878906 1.484375 -17.421875 C 1.222656 -15.972656 1.023438 -14.785156 0.890625 -13.859375 C 1.679688 -15.835938 2.65625 -18.03125 3.8125 -20.4375 C 4.96875 -22.851562 6.171875 -25.148438 7.421875 -27.328125 C 8.679688 -29.503906 9.9375 -31.316406 11.1875 -32.765625 C 12.445312 -34.222656 13.601562 -34.953125 14.65625 -34.953125 C 15.976562 -35.023438 16.921875 -34.484375 17.484375 -33.328125 C 18.046875 -32.171875 18.359375 -30.679688 18.421875 -28.859375 C 18.484375 -27.046875 18.398438 -25.113281 18.171875 -23.0625 C 17.941406 -21.019531 17.726562 -19.070312 17.53125 -17.21875 C 17.332031 -15.375 17.25 -13.84375 17.28125 -12.625 C 17.3125 -11.40625 17.59375 -10.765625 18.125 -10.703125 C 18.65625 -10.628906 19.394531 -11.15625 20.34375 -12.28125 C 21.300781 -13.40625 22.375 -14.921875 23.5625 -16.828125 C 24.757812 -18.742188 25.953125 -20.875 27.140625 -23.21875 C 28.328125 -25.5625 29.378906 -27.921875 30.296875 -30.296875 C 30.429688 -30.566406 30.582031 -30.648438 30.75 -30.546875 C 30.914062 -30.453125 30.929688 -30.304688 30.796875 -30.109375 C 28.359375 -24.097656 25.96875 -19.207031 23.625 -15.4375 C 21.28125 -11.675781 19.28125 -9.894531 17.625 -10.09375 C 16.4375 -10.226562 15.609375 -10.90625 15.140625 -12.125 C 14.679688 -13.351562 14.46875 -14.90625 14.5 -16.78125 C 14.539062 -18.664062 14.660156 -20.613281 14.859375 -22.625 C 15.054688 -24.644531 15.253906 -26.546875 15.453125 -28.328125 C 15.648438 -30.109375 15.679688 -31.539062 15.546875 -32.625 C 15.410156 -33.71875 15.015625 -34.234375 14.359375 -34.171875 Z M 27.328125 -90.015625 C 25.484375 -90.347656 23.671875 -89.585938 21.890625 -87.734375 C 20.109375 -85.890625 18.375 -83.21875 16.6875 -79.71875 C 15 -76.21875 13.410156 -72.09375 11.921875 -67.34375 C 10.441406 -62.59375 9.070312 -57.457031 7.8125 -51.9375 C 6.5625 -46.425781 5.476562 -40.765625 4.5625 -34.953125 C 6.664062 -37.597656 8.890625 -40.734375 11.234375 -44.359375 C 13.578125 -47.992188 15.890625 -51.84375 18.171875 -55.90625 C 20.453125 -59.96875 22.515625 -63.941406 24.359375 -67.828125 C 26.210938 -71.722656 27.648438 -75.289062 28.671875 -78.53125 C 29.691406 -81.769531 30.132812 -84.425781 30 -86.5 C 29.875 -88.582031 28.984375 -89.753906 27.328125 -90.015625 Z M 27.328125 -90.015625 "/></g></g></g><g fill="#808080" fill-opacity="1"><g transform="translate(267.125443, 215.178492)"><g><path d="M 2.46875 -12.28125 C 0.226562 -12.34375 -1.148438 -13.972656 -1.671875 -17.171875 C -2.203125 -20.378906 -1.710938 -24.691406 -0.203125 -30.109375 C 0.460938 -31.953125 1.222656 -32.820312 2.078125 -32.71875 C 2.929688 -32.625 3.195312 -31.753906 2.875 -30.109375 C 2.40625 -28.191406 1.941406 -26.242188 1.484375 -24.265625 C 1.023438 -22.285156 0.675781 -20.453125 0.4375 -18.765625 C 0.207031 -17.078125 0.238281 -15.6875 0.53125 -14.59375 C 0.832031 -13.507812 1.515625 -12.9375 2.578125 -12.875 C 3.503906 -12.8125 4.492188 -13.375 5.546875 -14.5625 C 6.597656 -15.75 7.648438 -17.265625 8.703125 -19.109375 C 9.765625 -20.960938 10.773438 -22.894531 11.734375 -24.90625 C 12.691406 -26.914062 13.535156 -28.710938 14.265625 -30.296875 C 14.328125 -30.429688 14.441406 -30.484375 14.609375 -30.453125 C 14.773438 -30.421875 14.789062 -30.304688 14.65625 -30.109375 C 12.28125 -24.691406 10.101562 -20.347656 8.125 -17.078125 C 6.144531 -13.816406 4.257812 -12.21875 2.46875 -12.28125 Z M 2.46875 -40.109375 C 2.863281 -41.234375 3.457031 -41.757812 4.25 -41.6875 C 5.050781 -41.625 5.316406 -41.066406 5.046875 -40.015625 C 4.847656 -39.148438 4.484375 -38.601562 3.953125 -38.375 C 3.429688 -38.144531 2.988281 -38.191406 2.625 -38.515625 C 2.257812 -38.847656 2.207031 -39.378906 2.46875 -40.109375 Z M 2.46875 -40.109375 "/></g></g></g><g fill="#808080" fill-opacity="1"><g transform="translate(281.385826, 215.178492)"><g><path d="M 6.9375 -16.734375 C 8.976562 -16.867188 10.988281 -18.070312 12.96875 -20.34375 C 14.945312 -22.625 17.191406 -25.941406 19.703125 -30.296875 C 19.835938 -30.492188 19.96875 -30.5625 20.09375 -30.5 C 20.226562 -30.4375 20.234375 -30.304688 20.109375 -30.109375 C 18.785156 -27.660156 17.394531 -25.363281 15.9375 -23.21875 C 14.488281 -21.070312 13.019531 -19.351562 11.53125 -18.0625 C 10.050781 -16.78125 8.519531 -16.140625 6.9375 -16.140625 C 4.488281 -16.140625 2.71875 -16.878906 1.625 -18.359375 C 0.539062 -19.847656 -0.0625 -21.765625 -0.1875 -24.109375 C -0.320312 -26.453125 -0.226562 -28.847656 0.09375 -31.296875 C 0.6875 -34.597656 1.757812 -37.222656 3.3125 -39.171875 C 4.863281 -41.117188 6.664062 -41.796875 8.71875 -41.203125 C 9.632812 -40.929688 10.140625 -40.234375 10.234375 -39.109375 C 10.335938 -37.992188 10.125 -36.773438 9.59375 -35.453125 C 9.070312 -34.128906 8.300781 -33.035156 7.28125 -32.171875 C 6.257812 -31.316406 5.019531 -30.988281 3.5625 -31.1875 C 3.164062 -28.882812 2.96875 -26.609375 2.96875 -24.359375 C 2.96875 -22.117188 3.28125 -20.269531 3.90625 -18.8125 C 4.539062 -17.363281 5.550781 -16.671875 6.9375 -16.734375 Z M 8.609375 -40.703125 C 7.617188 -40.960938 6.742188 -40.398438 5.984375 -39.015625 C 5.234375 -37.628906 4.59375 -35.816406 4.0625 -33.578125 C 4 -33.242188 3.929688 -32.910156 3.859375 -32.578125 C 3.796875 -32.253906 3.734375 -31.925781 3.671875 -31.59375 C 4.921875 -31.320312 6.023438 -31.597656 6.984375 -32.421875 C 7.941406 -33.253906 8.648438 -34.28125 9.109375 -35.5 C 9.566406 -36.71875 9.78125 -37.835938 9.75 -38.859375 C 9.71875 -39.890625 9.335938 -40.503906 8.609375 -40.703125 Z M 8.609375 -40.703125 "/></g></g></g><path stroke-linecap="butt" transform="matrix(0.983389, 0, 0, 0.983389, 70.035175, 118.362911)" fill="none" stroke-linejoin="miter" d="M 102.110217 8.608206 C 104.342612 9.347042 105.784533 11.106741 106.439952 13.895249 C 107.111259 16.679785 107.143037 20.1396 106.535285 24.270723 C 105.947395 28.385957 104.89078 32.89047 103.365443 37.792206 C 101.855994 42.693942 100.028767 47.68704 97.88376 52.767527 C 95.734782 57.832125 93.414998 62.682222 90.924407 67.321791 C 88.449706 71.94547 86.006782 76.032899 83.595636 79.59202 C 84.334472 84.902896 85.283836 89.705327 86.4477 93.999311 C 87.631426 98.293296 89.005818 101.784889 90.578823 104.474091 C 92.171689 107.163293 93.867832 108.81177 95.671226 109.41555 C 96.012838 108.529742 96.334589 108.204018 96.628535 108.434408 C 96.938369 108.676714 97.053564 109.054076 96.974119 109.562522 C 96.906591 110.070968 96.40609 110.285469 95.472615 110.202052 C 93.128997 109.614161 91.031658 108.088824 89.176624 105.630011 C 87.325564 103.187087 85.728726 100.064912 84.382139 96.263484 C 83.055413 92.473974 81.915381 88.263406 80.966018 83.623837 C 77.212257 89.264409 73.788192 93.812616 70.689849 97.268459 C 67.607396 100.728275 64.802999 103.377755 62.280631 105.212927 C 59.770179 107.063987 57.509978 108.311269 55.492084 108.950798 C 53.478161 109.590328 51.635045 109.876329 49.962735 109.808801 C 46.796865 109.745245 44.290385 108.283463 42.439324 105.431399 C 40.60018 102.579336 39.348927 98.738186 38.677619 93.900005 C 38.002339 89.065797 37.847422 83.560281 38.208896 77.379486 C 38.586258 71.198691 39.412482 64.692172 40.691542 57.855958 C 41.970601 51.003855 43.627022 44.167641 45.656833 37.351288 C 47.706506 30.530963 50.077929 24.107862 52.763159 18.074039 C 43.372799 15.174308 34.915914 13.335164 27.388531 12.564551 C 19.865121 11.79791 13.783631 12.20705 9.148035 13.795943 C 4.524355 15.368948 1.779541 18.2369 0.909622 22.399801 C 0.97715 22.598413 0.901678 22.713608 0.687177 22.745385 C 0.492538 22.777163 0.361454 22.661969 0.293926 22.399801 C 0.23037 22.121745 0.361454 21.482215 0.687177 20.485185 C 1.032762 19.468293 1.755708 18.344151 2.852045 17.116731 C 3.968242 15.869449 5.680275 14.729418 7.992115 13.696637 C 10.319844 12.647968 13.42613 11.97666 17.310975 11.682715 C 21.211708 11.368909 26.077694 11.631076 31.912905 12.469217 C 37.767978 13.303386 44.782942 14.99953 52.961771 17.557648 C 54.64997 14.066055 56.314336 11.484103 57.950896 9.811793 C 59.607318 8.123594 61.1406 7.06698 62.550743 6.641951 C 63.960886 6.19706 65.132695 6.149394 66.06617 6.494978 C 66.999644 6.820701 67.607396 7.253675 67.885453 7.797871 C 68.278704 8.600262 68.362121 9.724404 68.131731 11.166325 C 67.901341 12.608245 67.313451 14.018388 66.360115 15.392781 C 65.42664 16.771146 64.048275 17.811871 62.228992 18.514957 C 60.42957 19.222014 58.11773 19.269681 55.297444 18.665902 C 51.805851 28.139679 49.001454 37.275816 46.888226 46.078285 C 44.774998 54.864866 43.273493 63.003973 42.387685 70.495605 C 41.521738 77.967377 41.231765 84.525534 41.529683 90.166106 C 41.839517 95.802705 42.685603 100.271468 44.059996 103.56445 C 45.438361 106.857431 47.329144 108.66877 49.74029 108.998465 C 50.757181 109.129549 52.199102 108.942854 54.066052 108.434408 C 55.952863 107.941851 58.240869 106.80182 60.926099 105.014315 C 63.615301 103.246671 66.614338 100.549524 69.927181 96.926847 C 73.255912 93.30417 76.866673 88.434212 80.771378 82.320945 C 79.901459 77.288125 79.484375 71.885887 79.516152 66.118204 C 79.54793 60.33066 79.965015 54.539143 80.771378 48.73571 C 81.573769 42.932276 82.67805 37.466483 84.088193 32.334357 C 85.498336 27.186343 87.162702 22.689774 89.081291 18.836708 C 90.99988 14.967752 93.061469 12.091855 95.277975 10.205044 C 97.490509 8.322205 99.766599 7.789926 102.110217 8.608206 Z M 101.915577 9.100763 C 100.306823 8.429456 98.646429 8.985568 96.92248 10.773074 C 95.218392 12.540717 93.554026 15.221975 91.933355 18.812874 C 90.3246 22.399801 88.86679 26.598452 87.555953 31.400882 C 86.261005 36.203313 85.188502 41.307633 84.334472 46.717815 C 83.500303 52.127997 82.983912 57.569957 82.785301 63.043695 C 82.590661 68.501544 82.785301 73.649559 83.377163 78.483767 C 85.605586 75.405286 87.873732 71.699192 90.185572 67.37343 C 92.497412 63.027806 94.709946 58.404126 96.827146 53.506362 C 98.940375 48.604626 100.767602 43.718779 102.308829 38.84882 C 103.865944 33.982834 104.97817 29.474349 105.653449 25.327337 C 106.324757 21.164437 106.404201 17.641065 105.899728 14.753252 C 105.391282 11.853521 104.060584 9.96671 101.915577 9.100763 Z M 55.492084 18.173345 C 58.181286 18.697679 60.39382 18.590429 62.133658 17.851594 C 63.885413 17.116731 65.212139 16.08395 66.113836 14.753252 C 67.015533 13.410637 67.531924 12.083911 67.663007 10.773074 C 67.813952 9.462236 67.647119 8.568484 67.174423 8.091816 C 66.697755 7.551592 65.819891 7.404619 64.540832 7.650898 C 63.281634 7.877315 61.835741 8.786957 60.215069 10.379822 C 58.606315 11.952827 57.03331 14.550668 55.492084 18.173345 Z M 119.035904 82.42025 C 116.545314 82.61489 115.298032 80.068688 115.298032 74.773701 C 115.298032 73.017974 115.445005 71.01994 115.73895 68.771656 C 116.052757 66.527344 116.370535 64.382338 116.700231 62.332665 C 117.045815 60.282993 117.264288 58.57096 117.363594 57.192595 C 117.4629 55.81423 117.315927 55.095256 116.922676 55.027728 C 116.577092 54.964172 115.846201 55.587813 114.733975 56.89865 C 113.633667 58.193598 112.382413 60.183687 110.97227 62.872889 C 109.562127 65.562091 108.25129 68.922601 107.035787 72.954418 C 106.841147 73.820365 106.324757 74.364561 105.486615 74.575089 C 104.652446 74.773701 104.26714 74.328811 104.330696 73.248363 C 104.461779 71.774664 104.592863 70.487661 104.723947 69.387352 C 104.85503 68.275127 105.029809 67.111262 105.240337 65.895759 C 105.438949 64.684227 105.669338 63.206557 105.931506 61.470691 C 106.142034 60.191631 106.527341 59.38924 107.087426 59.059545 C 107.659427 58.717933 108.183762 58.733822 108.66043 59.111184 C 109.133126 59.472657 109.26421 60.092325 109.053681 60.978134 C 108.723986 62.980139 108.513457 64.330699 108.414152 65.037756 C 108.314846 65.740842 108.223484 66.21751 108.14404 66.463788 C 108.076512 66.690205 108.012956 67.043734 107.945428 67.520402 C 107.881872 67.977209 107.683261 68.986156 107.357537 70.543272 C 107.488621 69.804437 107.921595 68.569072 108.66043 66.829234 C 109.395293 65.077479 110.265212 63.242307 111.266215 61.323718 C 112.283107 59.405129 113.339721 57.756652 114.436058 56.382259 C 115.552255 55.003894 116.509564 54.380254 117.315927 54.511337 C 118.527458 54.578865 119.298072 55.266062 119.623795 56.576899 C 119.969379 57.887736 120.052796 59.552102 119.870073 61.569996 C 119.707212 63.583919 119.405322 65.732897 118.960432 68.012959 C 118.535403 70.289049 118.165985 72.438027 117.856151 74.45195 C 117.562206 76.469844 117.447011 78.165988 117.510566 79.544353 C 117.593983 80.918746 118.034901 81.67347 118.837293 81.804554 C 119.361627 81.872082 120.108407 81.355692 121.077632 80.255383 C 122.058774 79.139185 123.143194 77.665487 124.322947 75.830315 C 125.5027 73.979254 126.674509 71.94547 127.838374 69.732936 C 129.018127 67.520402 130.074741 65.371424 131.008216 63.289974 C 131.1393 63.011917 131.286273 62.888778 131.453106 62.920556 C 131.631857 62.952334 131.65569 63.111223 131.524607 63.389279 C 130.65866 65.47073 129.649712 67.599847 128.501737 69.780603 C 127.353761 71.961359 126.205786 73.995143 125.05781 75.877982 C 123.929696 77.748904 122.837332 79.29013 121.788662 80.501662 C 120.755881 81.713193 119.838295 82.352722 119.035904 82.42025 Z M 152.16036 55.127034 C 152.029276 56.799344 151.838609 58.880794 151.596303 61.371385 C 151.365913 63.846086 151.135524 66.479677 150.905134 69.264213 C 150.674745 72.052721 150.388744 74.78959 150.047132 77.478792 C 151.453302 76.477789 153.077946 75.290091 154.913118 73.911726 C 156.764179 72.533361 158.619212 70.944468 160.470273 69.141074 C 162.321333 67.321791 163.922144 65.307868 165.264758 63.095334 C 165.395842 62.813305 165.526926 62.725916 165.65801 62.82125 C 165.789093 62.920556 165.789093 63.111223 165.65801 63.389279 C 164.37895 65.665369 162.782112 67.750792 160.863524 69.633631 C 158.960824 71.50058 157.038263 73.141113 155.087896 74.551256 C 153.133557 75.961399 151.421524 77.20868 149.947826 78.289127 C 149.407602 83.05978 148.716433 88.048905 147.882264 93.260476 C 147.044123 98.46013 146.023259 103.572394 144.807756 108.605214 C 143.596224 113.638034 142.20197 118.349103 140.628966 122.742393 C 139.055961 127.151573 137.29229 130.980806 135.341923 134.226121 C 133.391556 137.487324 131.242578 139.906415 128.89896 141.479419 C 126.555342 143.068313 124.009141 143.592647 121.252411 143.052424 C 119.631739 142.706839 118.336791 141.511197 117.367566 139.461524 C 116.402313 137.411852 115.854145 134.726622 115.723061 131.39789 C 115.572117 128.085047 116.009062 124.331287 117.025954 120.136608 C 118.022985 115.941929 119.73899 111.540695 122.162052 106.932904 C 124.573198 102.344974 127.794679 97.737183 131.826496 93.113503 C 135.858313 88.477907 140.859355 84.032977 146.82565 79.78666 L 148.839573 59.059545 C 146.758122 65.438952 144.660783 70.118243 142.547555 73.10139 C 140.430354 76.084538 138.364793 77.574125 136.35087 77.574125 C 134.464059 77.443042 133.073778 76.561206 132.172081 74.920673 C 131.270384 73.264252 130.753993 71.345663 130.622909 69.164907 C 130.475937 66.988123 130.607021 65.029812 131.016161 63.289974 C 131.949636 59.520324 133.474973 56.882761 135.588201 55.373312 C 137.70143 53.863863 139.60413 53.113111 141.292329 53.113111 C 142.833555 53.176667 143.957698 54.038642 144.660783 55.691091 C 145.363868 57.331623 145.04609 59.321712 143.703475 61.669302 C 143.635947 61.800386 143.520752 61.903664 143.35789 61.987081 C 143.195029 62.054609 143.111612 61.947359 143.111612 61.669302 C 144.438338 59.321712 144.752144 57.399151 144.045087 55.889702 C 143.342001 54.380254 142.356887 53.661279 141.097689 53.724835 C 139.882186 53.987002 138.718322 54.932394 137.606096 56.553065 C 136.505787 58.157848 135.548479 60.084381 134.726227 62.332665 C 133.923836 64.576977 133.407445 66.8054 133.177056 69.017934 C 132.950638 71.230468 133.081722 73.085501 133.570307 74.575089 C 134.078753 76.05276 135.071811 76.823373 136.54551 76.886929 C 138.62696 76.954457 140.76005 75.043813 142.940806 71.158968 C 145.121562 67.258235 147.218901 62.042692 149.232824 55.520285 C 149.578408 54.388198 150.18616 53.792363 151.052107 53.724835 C 151.922026 53.661279 152.291444 54.126031 152.16036 55.127034 Z M 121.844273 142.436727 C 124.875088 142.373172 127.580179 141.078223 129.959546 138.551883 C 132.334942 136.045404 134.44817 132.645172 136.299231 128.347215 C 138.154264 124.05323 139.751102 119.234911 141.097689 113.892257 C 142.440304 108.545631 143.564446 103.008337 144.466143 97.268459 C 145.363868 91.532554 146.118593 85.943622 146.726344 80.501662 C 140.481993 85.204786 135.341923 89.991328 131.310106 94.861286 C 127.294178 99.727272 124.164058 104.48998 121.915774 109.145438 C 119.655573 113.816785 118.138179 118.186241 117.367566 122.249836 C 116.596953 126.317404 116.350674 129.872553 116.632703 132.923228 C 116.89487 135.969931 117.506594 138.329438 118.475819 140.001748 C 119.441072 141.689947 120.565214 142.504255 121.844273 142.436727 Z M 179.759439 59.258156 C 178.742547 59.38924 177.61046 60.251215 176.367151 61.840108 C 175.135759 63.413113 173.864644 65.387313 172.553807 67.766681 C 171.24297 70.142076 169.995689 72.624722 168.815935 75.214619 C 167.652071 77.804515 166.635179 80.207716 165.769232 82.42025 L 165.447481 83.723143 C 165.252842 84.461978 164.867535 85.002202 164.291561 85.343814 C 163.71956 85.67351 163.203169 85.67351 162.74239 85.343814 C 162.269694 85.002202 162.094916 84.231589 162.226 83.035947 C 163.636143 69.52638 165.479259 57.569957 167.759321 47.162705 C 170.055272 36.751481 172.629279 28.040373 175.481343 21.025408 C 178.333407 14.010444 181.280804 8.862429 184.33148 5.585336 C 187.398044 2.288383 190.337497 1.009323 193.157783 1.748159 C 194.897621 2.224827 195.878763 3.452247 196.109152 5.434392 C 196.355431 7.404619 196.049569 9.903154 195.199511 12.933969 C 194.361369 15.952866 193.141894 19.253792 191.537111 22.844691 C 189.928357 26.43559 188.117018 30.113879 186.103096 33.883528 C 184.085201 37.637289 182.035529 41.212299 179.954078 44.604587 C 177.872628 47.996874 175.922261 51.019744 174.102978 53.677168 C 172.299584 56.314731 170.825885 58.308793 169.67791 59.651408 C 168.875519 64.028809 168.235989 67.528347 167.759321 70.150021 C 167.302514 72.755806 166.933097 74.797534 166.65504 76.271233 C 166.388901 77.748904 166.194261 78.960435 166.063177 79.909799 C 166.865569 77.895876 167.850683 75.667453 169.014547 73.22453 C 170.1943 70.765717 171.42172 68.430044 172.70078 66.21751 C 173.979839 63.985114 175.258898 62.134054 176.537957 60.660355 C 177.817017 59.182684 178.988825 58.447821 180.053384 58.447821 C 181.395999 58.380293 182.357279 58.936406 182.929281 60.120131 C 183.505255 61.283996 183.823034 62.789472 183.890562 64.644505 C 183.954117 66.495566 183.862756 68.461822 183.616478 70.543272 C 183.39006 72.624722 183.17556 74.606867 182.98092 76.493678 C 182.782308 78.360628 182.698892 79.917743 182.734642 81.165025 C 182.76642 82.412306 183.05242 83.067724 183.592644 83.13128 C 184.116979 83.198808 184.863759 82.658584 185.832984 81.510609 C 186.814126 80.362633 187.914434 78.821407 189.125965 76.886929 C 190.337497 74.936562 191.545056 72.771695 192.740698 70.396299 C 193.952229 68.001043 195.028705 65.601813 195.962179 63.190668 C 196.109152 62.912611 196.264069 62.833167 196.426931 62.944389 C 196.593765 63.043695 196.609654 63.190668 196.47857 63.389279 C 193.987979 69.502547 191.545056 74.467839 189.149799 78.289127 C 186.774403 82.106444 184.748564 83.917782 183.076254 83.723143 C 181.864723 83.592059 181.018637 82.904863 180.545941 81.657582 C 180.085162 80.4103 179.874634 78.837296 179.906411 76.934596 C 179.938189 75.019979 180.053384 73.033862 180.248023 70.988162 C 180.462524 68.93849 180.66908 67.011956 180.86372 65.208562 C 181.062331 63.389279 181.094109 61.93147 180.963026 60.831161 C 180.831942 59.718936 180.430746 59.190628 179.759439 59.258156 Z M 192.935337 2.459189 C 191.068388 2.117577 189.225271 2.88819 187.405988 4.771029 C 185.602594 6.65784 183.838923 9.37882 182.118945 12.933969 C 180.414857 16.49309 178.798158 20.687768 177.276793 25.525949 C 175.767344 30.360157 174.37309 35.579672 173.094031 41.184494 C 171.834833 46.793288 170.72658 52.545082 169.777216 58.447821 C 171.922222 55.758619 174.186395 52.568915 176.561791 48.882682 C 178.953075 45.192477 181.30861 41.2838 183.616478 37.152677 C 185.944206 33.021554 188.045518 28.981792 189.912468 25.033392 C 191.799279 21.065131 193.257088 17.434509 194.289869 14.141528 C 195.338539 10.844574 195.799318 8.139483 195.668234 6.026254 C 195.533178 3.913026 194.623537 2.725328 192.935337 2.459189 Z M 198.476603 81.510609 C 196.196541 81.443081 194.798315 79.78666 194.270008 76.541345 C 193.729784 73.280141 194.230286 68.894795 195.771512 63.389279 C 196.44282 61.502468 197.213433 60.608716 198.083352 60.708022 C 198.953271 60.807328 199.223383 61.70108 198.893688 63.389279 C 198.420992 65.339646 197.944324 67.321791 197.467656 69.339685 C 197.010849 71.337719 196.65732 73.200696 196.411042 74.920673 C 196.180652 76.624762 196.21243 78.034905 196.510348 79.151102 C 196.820182 80.247439 197.507378 80.839301 198.575909 80.918746 C 199.525273 80.986274 200.53422 80.4103 201.598779 79.198769 C 202.679226 77.987238 203.755702 76.446011 204.82026 74.575089 C 205.900708 72.69225 206.925544 70.722023 207.894769 68.676322 C 208.875911 66.62665 209.737885 64.799422 210.476721 63.190668 C 210.540277 63.043695 210.655471 62.996028 210.818333 63.043695 C 210.985167 63.075473 211.001056 63.190668 210.869972 63.389279 C 208.458826 68.894795 206.246292 73.311919 204.228398 76.640651 C 202.214475 79.953493 200.295886 81.574165 198.476603 81.510609 Z M 198.476603 53.208445 C 198.885743 52.060469 199.493495 51.52819 200.295886 51.611607 C 201.098277 51.675163 201.368389 52.243192 201.106222 53.307751 C 200.911582 54.17767 200.542165 54.733782 200.001941 54.980061 C 199.461717 55.21045 199.000938 55.158811 198.623576 54.833088 C 198.262103 54.487504 198.214436 53.94728 198.476603 53.208445 Z M 217.527436 76.986235 C 219.608886 76.855151 221.650614 75.631703 223.648647 73.323836 C 225.666542 70.996107 227.950576 67.615736 230.508695 63.190668 C 230.639779 62.980139 230.770862 62.912611 230.901946 62.996028 C 231.048919 63.059584 231.048919 63.190668 230.901946 63.389279 C 229.57522 65.863981 228.165077 68.199654 226.671517 70.396299 C 225.197819 72.577056 223.704259 74.320866 222.198782 75.631703 C 220.689333 76.926651 219.132218 77.574125 217.527436 77.574125 C 215.032873 77.574125 213.233451 76.823373 212.117253 75.313925 C 211.016945 73.804476 210.405221 71.862054 210.274137 69.486658 C 210.143053 67.091401 210.238387 64.660394 210.568082 62.185693 C 211.175834 58.825183 212.264226 56.15187 213.837231 54.169725 C 215.410235 52.183608 217.241435 51.496412 219.322885 52.104164 C 220.272249 52.366331 220.796584 53.069417 220.89589 54.217392 C 220.991223 55.365368 220.77275 56.612649 220.232527 57.955264 C 219.708192 59.297879 218.917717 60.406132 217.869048 61.276051 C 216.836267 62.141998 215.577069 62.479638 214.083509 62.281026 C 213.690258 64.624644 213.495618 66.944428 213.495618 69.240379 C 213.495618 71.520441 213.813397 73.395336 214.452927 74.869034 C 215.092456 76.346705 216.117293 77.049791 217.527436 76.986235 Z M 219.223579 52.620554 C 218.222576 52.342498 217.336768 52.906555 216.566155 54.316698 C 215.795542 55.726841 215.140123 57.569957 214.599899 59.850019 C 214.536344 60.191631 214.468816 60.537216 214.40526 60.878828 C 214.337732 61.208523 214.274176 61.538219 214.206648 61.863942 C 215.469819 62.141998 216.582044 61.863942 217.551269 61.029773 C 218.536383 60.175742 219.263302 59.135017 219.73997 57.907597 C 220.212665 56.660316 220.427166 55.520285 220.379499 54.487504 C 220.343749 53.438834 219.962415 52.815194 219.223579 52.620554 Z M 219.223579 52.620554 " stroke="#fdf6f8" stroke-width="3.776775" stroke-opacity="1" stroke-miterlimit="4"/><g fill="#808080" fill-opacity="1"><g transform="translate(301.098697, 215.178492)"><g/></g></g></svg>